solid OpenSCAD_Model
  facet normal 0 0 -1
    outer loop
      vertex -2.86667 0 0
      vertex -2.81158 0.491096 0
      vertex -2.81158 -0.491096 0
    endloop
  endfacet
  facet normal 0 0 -1
    outer loop
      vertex -2.81158 -0.491096 0
      vertex -2.81158 0.491096 0
      vertex -2.64846 0.96332 0
    endloop
  endfacet
  facet normal 0 0 -1
    outer loop
      vertex -2.81158 -0.491096 0
      vertex -2.64846 0.96332 0
      vertex -2.38355 1.39853 0
    endloop
  endfacet
  facet normal 0 0 -1
    outer loop
      vertex -2.81158 -0.491096 0
      vertex -2.38355 1.39853 0
      vertex -2.02704 1.77999 0
    endloop
  endfacet
  facet normal 0 0 -1
    outer loop
      vertex -2.81158 -0.491096 0
      vertex -2.02704 1.77999 0
      vertex -1.59263 2.09304 0
    endloop
  endfacet
  facet normal 0 0 -1
    outer loop
      vertex -2.81158 -0.491096 0
      vertex -1.59263 2.09304 0
      vertex -1.09702 2.32566 0
    endloop
  endfacet
  facet normal 0 0 -1
    outer loop
      vertex -2.81158 -0.491096 0
      vertex -1.09702 2.32566 0
      vertex -0.559258 2.46891 0
    endloop
  endfacet
  facet normal 0 0 -1
    outer loop
      vertex -2.81158 -0.491096 0
      vertex -0.559258 2.46891 0
      vertex 0 2.51728 0
    endloop
  endfacet
  facet normal 0 0 -1
    outer loop
      vertex 0 2.51728 0
      vertex 0 3.517 0
      vertex 6.12 3.15 0
    endloop
  endfacet
  facet normal 0 0 -1
    outer loop
      vertex 0 2.51728 0
      vertex 6.12 3.15 0
      vertex -2.81158 -0.491096 0
    endloop
  endfacet
  facet normal 0 0 -1
    outer loop
      vertex -2.81158 -0.491096 0
      vertex 6.12 3.15 0
      vertex 9.88667 3.15 0
    endloop
  endfacet
  facet normal 0 0 -1
    outer loop
      vertex 9.88667 3.15 0
      vertex 10.0275 3.1874 0
      vertex -2.81158 -0.491096 0
    endloop
  endfacet
  facet normal 0 0 -1
    outer loop
      vertex 10.0275 3.1874 0
      vertex 10.3732 3.37216 0
      vertex 11.0579 3.57987 0
    endloop
  endfacet
  facet normal 0 0 -1
    outer loop
      vertex 10.0275 3.1874 0
      vertex 11.0579 3.57987 0
      vertex 11.77 3.65 0
    endloop
  endfacet
  facet normal 0 0 -1
    outer loop
      vertex 10.0275 3.1874 0
      vertex 11.77 3.65 0
      vertex -2.81158 -0.491096 0
    endloop
  endfacet
  facet normal 0 0 -1
    outer loop
      vertex 4.25 1.5 0
      vertex 11.77 3.65 0
      vertex 12.4821 3.57987 0
    endloop
  endfacet
  facet normal 0 0 -1
    outer loop
      vertex 6.25 1.5 0
      vertex 9.68403 2.08596 0
      vertex 9.31716 1.63893 0
    endloop
  endfacet
  facet normal 0 0 -1
    outer loop
      vertex 11.77 2.95 0
      vertex 13.1668 3.37216 0
      vertex 13.54 3.17268 0
    endloop
  endfacet
  facet normal 0 0 -1
    outer loop
      vertex 13.4089 2.45283 0
      vertex 13.54 3.17268 0
      vertex 13.54 2.34527 0
    endloop
  endfacet
  facet normal 0 0 -1
    outer loop
      vertex 12.8989 2.72544 0
      vertex 13.54 3.17268 0
      vertex 13.4089 2.45283 0
    endloop
  endfacet
  facet normal 0 0 -1
    outer loop
      vertex 12.3455 2.89332 0
      vertex 13.54 3.17268 0
      vertex 12.8989 2.72544 0
    endloop
  endfacet
  facet normal 0 0 -1
    outer loop
      vertex 11.1945 2.89332 0
      vertex 13.1668 3.37216 0
      vertex 11.77 2.95 0
    endloop
  endfacet
  facet normal 0 0 -1
    outer loop
      vertex 6.25 1.5 0
      vertex 9.31716 1.63893 0
      vertex 9.04455 1.12892 0
    endloop
  endfacet
  facet normal 0 0 -1
    outer loop
      vertex 9.68403 2.08596 0
      vertex 6.25 1.5 0
      vertex 10.1311 2.45283 0
    endloop
  endfacet
  facet normal 0 0 -1
    outer loop
      vertex 4.25 1.5 0
      vertex 11.1945 2.89332 0
      vertex 10.6411 2.72544 0
    endloop
  endfacet
  facet normal 0 0 -1
    outer loop
      vertex 10.0275 -3.1874 0
      vertex 11.77 -3.65 0
      vertex 10.3732 -3.37216 0
    endloop
  endfacet
  facet normal 0 0 -1
    outer loop
      vertex 6.25 1.5 0
      vertex 9.31716 -1.63893 0
      vertex 6.25 -1.5 0
    endloop
  endfacet
  facet normal 0 0 -1
    outer loop
      vertex 6.25 1.5 0
      vertex 9.04455 -1.12892 0
      vertex 9.31716 -1.63893 0
    endloop
  endfacet
  facet normal 0 0 -1
    outer loop
      vertex 6.25 1.5 0
      vertex 8.87668 -0.575516 0
      vertex 9.04455 -1.12892 0
    endloop
  endfacet
  facet normal 0 0 -1
    outer loop
      vertex 6.25 1.5 0
      vertex 8.87668 0.575516 0
      vertex 8.82 0 0
    endloop
  endfacet
  facet normal 0 0 -1
    outer loop
      vertex 4.25 -1.5 0
      vertex 10.1311 -2.45283 0
      vertex -2.81158 -0.491096 0
    endloop
  endfacet
  facet normal 0 0 -1
    outer loop
      vertex 10.1311 -2.45283 0
      vertex 10.6411 -2.72544 0
      vertex -2.81158 -0.491096 0
    endloop
  endfacet
  facet normal 0 0 -1
    outer loop
      vertex 10.6411 -2.72544 0
      vertex 11.1945 -2.89332 0
      vertex -2.81158 -0.491096 0
    endloop
  endfacet
  facet normal 0 0 -1
    outer loop
      vertex 11.77 -2.95 0
      vertex 13.54 -3.17268 0
      vertex 11.1945 -2.89332 0
    endloop
  endfacet
  facet normal 0 0 -1
    outer loop
      vertex 12.3455 -2.89332 0
      vertex 13.54 -3.17268 0
      vertex 11.77 -2.95 0
    endloop
  endfacet
  facet normal 0 0 -1
    outer loop
      vertex 12.8989 -2.72544 0
      vertex 13.54 -3.17268 0
      vertex 12.3455 -2.89332 0
    endloop
  endfacet
  facet normal 0 0 -1
    outer loop
      vertex 13.4089 -2.45283 0
      vertex 13.54 -2.34527 0
      vertex 13.54 -3.17268 0
    endloop
  endfacet
  facet normal 0 0 -1
    outer loop
      vertex 13.4089 -2.45283 0
      vertex 13.54 -3.17268 0
      vertex 12.8989 -2.72544 0
    endloop
  endfacet
  facet normal 0 0 -1
    outer loop
      vertex 11.1945 -2.89332 0
      vertex 13.54 -3.17268 0
      vertex 13.1668 -3.37216 0
    endloop
  endfacet
  facet normal 0 0 -1
    outer loop
      vertex 11.1945 -2.89332 0
      vertex 13.1668 -3.37216 0
      vertex -2.81158 -0.491096 0
    endloop
  endfacet
  facet normal 0 0 -1
    outer loop
      vertex -2.81158 -0.491096 0
      vertex 13.1668 -3.37216 0
      vertex 12.4821 -3.57987 0
    endloop
  endfacet
  facet normal 0 0 -1
    outer loop
      vertex 10.0275 -3.1874 0
      vertex 12.4821 -3.57987 0
      vertex 11.77 -3.65 0
    endloop
  endfacet
  facet normal 0 0 -1
    outer loop
      vertex 10.3732 -3.37216 0
      vertex 11.77 -3.65 0
      vertex 11.0579 -3.57987 0
    endloop
  endfacet
  facet normal 0 0 -1
    outer loop
      vertex 9.88667 -3.15 0
      vertex 12.4821 -3.57987 0
      vertex 10.0275 -3.1874 0
    endloop
  endfacet
  facet normal 0 0 -1
    outer loop
      vertex 6.12 -3.15 0
      vertex -2.81158 -0.491096 0
      vertex 9.88667 -3.15 0
    endloop
  endfacet
  facet normal 0 0 -1
    outer loop
      vertex -2.81158 -0.491096 0
      vertex 12.4821 -3.57987 0
      vertex 9.88667 -3.15 0
    endloop
  endfacet
  facet normal 0 0 -1
    outer loop
      vertex 4.25 1.5 0
      vertex 10.6411 2.72544 0
      vertex 10.1311 2.45283 0
    endloop
  endfacet
  facet normal 0 0 -1
    outer loop
      vertex -1.59263 -2.09304 0
      vertex -2.81158 -0.491096 0
      vertex -1.09702 -2.32566 0
    endloop
  endfacet
  facet normal 0 0 -1
    outer loop
      vertex 4.25 1.5 0
      vertex 13.1668 3.37216 0
      vertex 11.1945 2.89332 0
    endloop
  endfacet
  facet normal 0 0 -1
    outer loop
      vertex 6.12 -3.15 0
      vertex 0 -3.517 0
      vertex 0 -2.51728 0
    endloop
  endfacet
  facet normal 0 0 -1
    outer loop
      vertex 6.12 -3.15 0
      vertex 0 -2.51728 0
      vertex -2.81158 -0.491096 0
    endloop
  endfacet
  facet normal 0 0 -1
    outer loop
      vertex 0 -2.51728 0
      vertex -0.559258 -2.46891 0
      vertex -2.81158 -0.491096 0
    endloop
  endfacet
  facet normal 0 0 -1
    outer loop
      vertex -0.559258 -2.46891 0
      vertex -1.09702 -2.32566 0
      vertex -2.81158 -0.491096 0
    endloop
  endfacet
  facet normal 0 0 -1
    outer loop
      vertex 4.25 1.5 0
      vertex 12.4821 3.57987 0
      vertex 13.1668 3.37216 0
    endloop
  endfacet
  facet normal 0 0 -1
    outer loop
      vertex -2.81158 -0.491096 0
      vertex -1.59263 -2.09304 0
      vertex -2.02704 -1.77999 0
    endloop
  endfacet
  facet normal 0 0 -1
    outer loop
      vertex -2.81158 -0.491096 0
      vertex -2.02704 -1.77999 0
      vertex -2.38355 -1.39853 0
    endloop
  endfacet
  facet normal 0 0 -1
    outer loop
      vertex -2.81158 -0.491096 0
      vertex -2.38355 -1.39853 0
      vertex -2.64846 -0.96332 0
    endloop
  endfacet
  facet normal 0 0 -1
    outer loop
      vertex -2.81158 -0.491096 0
      vertex 11.77 3.65 0
      vertex 4.25 1.5 0
    endloop
  endfacet
  facet normal 0 0 -1
    outer loop
      vertex 4.25 -1.5 0
      vertex -2.81158 -0.491096 0
      vertex 4.25 1.5 0
    endloop
  endfacet
  facet normal 0 0 -1
    outer loop
      vertex 9.68403 -2.08596 0
      vertex 10.1311 -2.45283 0
      vertex 4.25 -1.5 0
    endloop
  endfacet
  facet normal 0 0 -1
    outer loop
      vertex 6.25 1.5 0
      vertex 9.04455 1.12892 0
      vertex 8.87668 0.575516 0
    endloop
  endfacet
  facet normal 0 0 -1
    outer loop
      vertex 9.31716 -1.63893 0
      vertex 9.68403 -2.08596 0
      vertex 6.25 -1.5 0
    endloop
  endfacet
  facet normal 0 0 -1
    outer loop
      vertex 6.25 1.5 0
      vertex 8.82 0 0
      vertex 8.87668 -0.575516 0
    endloop
  endfacet
  facet normal 0 0 -1
    outer loop
      vertex 11.77 2.95 0
      vertex 13.54 3.17268 0
      vertex 12.3455 2.89332 0
    endloop
  endfacet
  facet normal 0 0 -1
    outer loop
      vertex 4.25 1.5 0
      vertex 10.1311 2.45283 0
      vertex 6.25 1.5 0
    endloop
  endfacet
  facet normal 0 0 -1
    outer loop
      vertex 6.25 -1.5 0
      vertex 9.68403 -2.08596 0
      vertex 4.25 -1.5 0
    endloop
  endfacet
  facet normal -0.993768 0.111464 0
    outer loop
      vertex -2.86667 0 0
      vertex -2.86667 0 0.75
      vertex -2.81158 0.491096 0
    endloop
  endfacet
  facet normal -0.993768 0.111464 0
    outer loop
      vertex -2.81158 0.491096 0
      vertex -2.86667 0 0.75
      vertex -2.81158 0.491096 0.75
    endloop
  endfacet
  facet normal -0.993768 -0.111464 0
    outer loop
      vertex -2.86667 0 0
      vertex -2.81158 -0.491096 0
      vertex -2.86667 0 0.75
    endloop
  endfacet
  facet normal -0.993768 -0.111464 0
    outer loop
      vertex -2.86667 0 0.75
      vertex -2.81158 -0.491096 0
      vertex -2.81158 -0.491096 0.75
    endloop
  endfacet
  facet normal -0.945193 -0.326513 0
    outer loop
      vertex -2.81158 -0.491096 0
      vertex -2.64846 -0.96332 0
      vertex -2.81158 -0.491096 0.75
    endloop
  endfacet
  facet normal -0.945193 -0.326513 0
    outer loop
      vertex -2.81158 -0.491096 0.75
      vertex -2.64846 -0.96332 0
      vertex -2.64846 -0.96332 0.75
    endloop
  endfacet
  facet normal -0.854197 -0.519949 0
    outer loop
      vertex -2.64846 -0.96332 0
      vertex -2.38355 -1.39853 0
      vertex -2.64846 -0.96332 0.75
    endloop
  endfacet
  facet normal -0.854197 -0.519949 0
    outer loop
      vertex -2.64846 -0.96332 0.75
      vertex -2.38355 -1.39853 0
      vertex -2.38355 -1.39853 0.75
    endloop
  endfacet
  facet normal -0.730599 -0.682806 0
    outer loop
      vertex -2.38355 -1.39853 0
      vertex -2.02704 -1.77999 0
      vertex -2.38355 -1.39853 0.75
    endloop
  endfacet
  facet normal -0.730599 -0.682806 0
    outer loop
      vertex -2.38355 -1.39853 0.75
      vertex -2.02704 -1.77999 0
      vertex -2.02704 -1.77999 0.75
    endloop
  endfacet
  facet normal -0.584654 -0.811283 0
    outer loop
      vertex -2.02704 -1.77999 0.75
      vertex -2.02704 -1.77999 0
      vertex -1.59263 -2.09304 0
    endloop
  endfacet
  facet normal -0.584654 -0.811283 0
    outer loop
      vertex -1.59263 -2.09304 0.75
      vertex -2.02704 -1.77999 0.75
      vertex -1.59263 -2.09304 0
    endloop
  endfacet
  facet normal -0.42489 -0.905245 0
    outer loop
      vertex -1.59263 -2.09304 0.75
      vertex -1.59263 -2.09304 0
      vertex -1.09702 -2.32566 0
    endloop
  endfacet
  facet normal -0.42489 -0.905245 0
    outer loop
      vertex -1.09702 -2.32566 0.75
      vertex -1.59263 -2.09304 0.75
      vertex -1.09702 -2.32566 0
    endloop
  endfacet
  facet normal -0.257397 -0.966306 0
    outer loop
      vertex -1.09702 -2.32566 0.75
      vertex -1.09702 -2.32566 0
      vertex -0.559258 -2.46891 0
    endloop
  endfacet
  facet normal -0.257397 -0.966306 0
    outer loop
      vertex -0.559258 -2.46891 0.75
      vertex -1.09702 -2.32566 0.75
      vertex -0.559258 -2.46891 0
    endloop
  endfacet
  facet normal -0.0861671 -0.996281 0
    outer loop
      vertex -0.559258 -2.46891 0.75
      vertex -0.559258 -2.46891 0
      vertex 0 -2.51728 0
    endloop
  endfacet
  facet normal -0.0861671 -0.996281 0
    outer loop
      vertex 0 -2.51728 0.75
      vertex -0.559258 -2.46891 0.75
      vertex 0 -2.51728 2.22045e-16
    endloop
  endfacet
  facet normal -0.0861671 -0.996281 0
    outer loop
      vertex 0 -2.51728 2.22045e-16
      vertex -0.559258 -2.46891 0.75
      vertex 0 -2.51728 0
    endloop
  endfacet
  facet normal -1 0 0
    outer loop
      vertex 0 -2.51728 2.22045e-16
      vertex 0 -2.51728 0
      vertex 0 -3.517 6.20748e-20
    endloop
  endfacet
  facet normal -1 0 0
    outer loop
      vertex 0 -3.517 6.20748e-20
      vertex 0 -2.51728 0
      vertex 0 -3.517 0
    endloop
  endfacet
  facet normal 0.0598598 -0.998207 0
    outer loop
      vertex 6.12 -3.15 0
      vertex 6.12 -3.15 1.5
      vertex 1.5 -3.42705 1.5
    endloop
  endfacet
  facet normal 0.0598598 -0.998207 0
    outer loop
      vertex 0.925975 -3.46147 1.38582
      vertex 6.12 -3.15 0
      vertex 1.20737 -3.4446 1.47118
    endloop
  endfacet
  facet normal 0.0598598 -0.998207 0
    outer loop
      vertex 1.20737 -3.4446 1.47118
      vertex 6.12 -3.15 0
      vertex 1.5 -3.42705 1.5
    endloop
  endfacet
  facet normal 0.0598598 -0.998207 0
    outer loop
      vertex 0.666645 -3.47702 1.2472
      vertex 6.12 -3.15 0
      vertex 0.925975 -3.46147 1.38582
    endloop
  endfacet
  facet normal 0.0598598 -0.998207 0
    outer loop
      vertex 0.43934 -3.49065 1.06066
      vertex 6.12 -3.15 0
      vertex 0.666645 -3.47702 1.2472
    endloop
  endfacet
  facet normal 0.0598598 -0.998207 0
    outer loop
      vertex 0.252796 -3.50184 0.833355
      vertex 6.12 -3.15 0
      vertex 0.43934 -3.49065 1.06066
    endloop
  endfacet
  facet normal 0.0598598 -0.998207 0
    outer loop
      vertex 0.114181 -3.51015 0.574025
      vertex 6.12 -3.15 0
      vertex 0.252796 -3.50184 0.833355
    endloop
  endfacet
  facet normal 0.0598598 -0.998207 0
    outer loop
      vertex 0.028822 -3.51527 0.292635
      vertex 6.12 -3.15 0
      vertex 0.114181 -3.51015 0.574025
    endloop
  endfacet
  facet normal 0.0598598 -0.998207 0
    outer loop
      vertex 0 -3.517 6.20748e-20
      vertex 6.12 -3.15 0
      vertex 0.028822 -3.51527 0.292635
    endloop
  endfacet
  facet normal 0.0598598 -0.998207 0
    outer loop
      vertex 0 -3.517 0
      vertex 6.12 -3.15 0
      vertex 0 -3.517 6.20748e-20
    endloop
  endfacet
  facet normal 0 -1 0
    outer loop
      vertex 9.95757 -3.15 1.5
      vertex 9.88667 -3.15 0.75
      vertex 9.95757 -3.15 0.75
    endloop
  endfacet
  facet normal 0 -1 0
    outer loop
      vertex 6.12 -3.15 1.5
      vertex 9.88667 -3.15 0.75
      vertex 9.95757 -3.15 1.5
    endloop
  endfacet
  facet normal 0 -1 0
    outer loop
      vertex 9.88667 -3.15 0
      vertex 9.88667 -3.15 0.75
      vertex 6.12 -3.15 1.5
    endloop
  endfacet
  facet normal 0 -1 0
    outer loop
      vertex 6.12 -3.15 0
      vertex 9.88667 -3.15 0
      vertex 6.12 -3.15 1.5
    endloop
  endfacet
  facet normal -0.256598 -0.966518 0
    outer loop
      vertex 10.0275 -3.1874 0
      vertex 10.0275 -3.1874 0.75
      vertex 9.88667 -3.15 0.75
    endloop
  endfacet
  facet normal -0.256598 -0.966518 0
    outer loop
      vertex 9.88667 -3.15 0
      vertex 10.0275 -3.1874 0
      vertex 9.88667 -3.15 0.75
    endloop
  endfacet
  facet normal -0.471397 -0.881921 0
    outer loop
      vertex 10.0275 -3.1874 0.75
      vertex 10.3732 -3.37216 0
      vertex 9.74217 -3.03486 6
    endloop
  endfacet
  facet normal -0.471397 -0.881921 0
    outer loop
      vertex 9.74217 -3.03486 6
      vertex 9.74217 -3.03486 1.5
      vertex 9.95757 -3.15 1.5
    endloop
  endfacet
  facet normal -0.471397 -0.881921 0
    outer loop
      vertex 10.0275 -3.1874 0.75
      vertex 9.74217 -3.03486 6
      vertex 9.95757 -3.15 1.5
    endloop
  endfacet
  facet normal -0.471397 -0.881921 0
    outer loop
      vertex 9.95757 -3.15 0.75
      vertex 10.0275 -3.1874 0.75
      vertex 9.95757 -3.15 1.5
    endloop
  endfacet
  facet normal -0.471397 -0.881921 0
    outer loop
      vertex 10.0275 -3.1874 0
      vertex 10.3732 -3.37216 0
      vertex 10.0275 -3.1874 0.75
    endloop
  endfacet
  facet normal -0.471397 -0.881921 0
    outer loop
      vertex 10.3732 -3.37216 0
      vertex 10.3732 -3.37216 6
      vertex 9.74217 -3.03486 6
    endloop
  endfacet
  facet normal -0.290285 -0.95694 0
    outer loop
      vertex 10.3732 -3.37216 6
      vertex 10.3732 -3.37216 0
      vertex 11.0579 -3.57987 0
    endloop
  endfacet
  facet normal -0.290285 -0.95694 0
    outer loop
      vertex 11.0579 -3.57987 6
      vertex 10.3732 -3.37216 6
      vertex 11.0579 -3.57987 0
    endloop
  endfacet
  facet normal -0.0980175 -0.995185 0
    outer loop
      vertex 11.0579 -3.57987 6
      vertex 11.0579 -3.57987 0
      vertex 11.77 -3.65 0
    endloop
  endfacet
  facet normal -0.0980175 -0.995185 0
    outer loop
      vertex 11.77 -3.65 6
      vertex 11.0579 -3.57987 6
      vertex 11.77 -3.65 0
    endloop
  endfacet
  facet normal 0.0980175 -0.995185 0
    outer loop
      vertex 11.77 -3.65 6
      vertex 11.77 -3.65 0
      vertex 12.4821 -3.57987 0
    endloop
  endfacet
  facet normal 0.0980175 -0.995185 0
    outer loop
      vertex 12.4821 -3.57987 6
      vertex 11.77 -3.65 6
      vertex 12.4821 -3.57987 0
    endloop
  endfacet
  facet normal 0.290285 -0.95694 0
    outer loop
      vertex 12.4821 -3.57987 6
      vertex 12.4821 -3.57987 0
      vertex 13.1668 -3.37216 0
    endloop
  endfacet
  facet normal 0.290285 -0.95694 0
    outer loop
      vertex 13.1668 -3.37216 6
      vertex 12.4821 -3.57987 6
      vertex 13.1668 -3.37216 0
    endloop
  endfacet
  facet normal 0.471397 -0.881921 0
    outer loop
      vertex 13.1668 -3.37216 6
      vertex 13.1668 -3.37216 0
      vertex 13.54 -3.17268 0
    endloop
  endfacet
  facet normal 0.471397 -0.881921 0
    outer loop
      vertex 13.54 -3.17268 6
      vertex 13.1668 -3.37216 6
      vertex 13.54 -3.17268 0
    endloop
  endfacet
  facet normal 1 0 0
    outer loop
      vertex 13.54 -2.34527 0
      vertex 13.54 -2.34527 6
      vertex 13.54 -3.17268 6
    endloop
  endfacet
  facet normal 1 0 0
    outer loop
      vertex 13.54 -3.17268 0
      vertex 13.54 -2.34527 0
      vertex 13.54 -3.17268 6
    endloop
  endfacet
  facet normal -0.634393 0.773011 0
    outer loop
      vertex 13.54 -2.34527 6
      vertex 13.54 -2.34527 0
      vertex 13.4089 -2.45283 6
    endloop
  endfacet
  facet normal -0.634393 0.773011 0
    outer loop
      vertex 13.4089 -2.45283 6
      vertex 13.54 -2.34527 0
      vertex 13.4089 -2.45283 0
    endloop
  endfacet
  facet normal -0.471398 0.881921 0
    outer loop
      vertex 13.4089 -2.45283 6
      vertex 13.4089 -2.45283 0
      vertex 12.8989 -2.72544 6
    endloop
  endfacet
  facet normal -0.471398 0.881921 0
    outer loop
      vertex 12.8989 -2.72544 6
      vertex 13.4089 -2.45283 0
      vertex 12.8989 -2.72544 0
    endloop
  endfacet
  facet normal -0.290285 0.95694 0
    outer loop
      vertex 12.8989 -2.72544 6
      vertex 12.8989 -2.72544 0
      vertex 12.3455 -2.89332 6
    endloop
  endfacet
  facet normal -0.290285 0.95694 0
    outer loop
      vertex 12.3455 -2.89332 6
      vertex 12.8989 -2.72544 0
      vertex 12.3455 -2.89332 0
    endloop
  endfacet
  facet normal -0.0980165 0.995185 0
    outer loop
      vertex 12.3455 -2.89332 6
      vertex 12.3455 -2.89332 0
      vertex 11.77 -2.95 6
    endloop
  endfacet
  facet normal -0.0980165 0.995185 0
    outer loop
      vertex 11.77 -2.95 6
      vertex 12.3455 -2.89332 0
      vertex 11.77 -2.95 0
    endloop
  endfacet
  facet normal 0.0980165 0.995185 0
    outer loop
      vertex 11.77 -2.95 6
      vertex 11.77 -2.95 0
      vertex 11.1945 -2.89332 6
    endloop
  endfacet
  facet normal 0.0980165 0.995185 0
    outer loop
      vertex 11.1945 -2.89332 6
      vertex 11.77 -2.95 0
      vertex 11.1945 -2.89332 0
    endloop
  endfacet
  facet normal 0.290285 0.95694 0
    outer loop
      vertex 11.1945 -2.89332 6
      vertex 11.1945 -2.89332 0
      vertex 10.6411 -2.72544 6
    endloop
  endfacet
  facet normal 0.290285 0.95694 0
    outer loop
      vertex 10.6411 -2.72544 6
      vertex 11.1945 -2.89332 0
      vertex 10.6411 -2.72544 0
    endloop
  endfacet
  facet normal 0.471398 0.881921 0
    outer loop
      vertex 10.6411 -2.72544 6
      vertex 10.6411 -2.72544 0
      vertex 10.1311 -2.45283 6
    endloop
  endfacet
  facet normal 0.471398 0.881921 0
    outer loop
      vertex 10.1311 -2.45283 6
      vertex 10.6411 -2.72544 0
      vertex 10.1311 -2.45283 0
    endloop
  endfacet
  facet normal 0.634393 0.773011 0
    outer loop
      vertex 10.1311 -2.45283 6
      vertex 10.1311 -2.45283 0
      vertex 9.68403 -2.08596 6
    endloop
  endfacet
  facet normal 0.634393 0.773011 0
    outer loop
      vertex 9.68403 -2.08596 6
      vertex 10.1311 -2.45283 0
      vertex 9.68403 -2.08596 0
    endloop
  endfacet
  facet normal 0.773011 0.634393 0
    outer loop
      vertex 9.31716 -1.63893 6
      vertex 9.68403 -2.08596 6
      vertex 9.68403 -2.08596 0
    endloop
  endfacet
  facet normal 0.773011 0.634393 0
    outer loop
      vertex 9.31716 -1.63893 0
      vertex 9.31716 -1.63893 6
      vertex 9.68403 -2.08596 0
    endloop
  endfacet
  facet normal 0.881921 0.471398 0
    outer loop
      vertex 9.04455 -1.12892 6
      vertex 9.31716 -1.63893 6
      vertex 9.31716 -1.63893 0
    endloop
  endfacet
  facet normal 0.881921 0.471398 0
    outer loop
      vertex 9.04455 -1.12892 0
      vertex 9.04455 -1.12892 6
      vertex 9.31716 -1.63893 0
    endloop
  endfacet
  facet normal 0.95694 0.290285 0
    outer loop
      vertex 8.87668 -0.575516 6
      vertex 9.04455 -1.12892 6
      vertex 9.04455 -1.12892 0
    endloop
  endfacet
  facet normal 0.95694 0.290285 0
    outer loop
      vertex 8.87668 -0.575516 0
      vertex 8.87668 -0.575516 6
      vertex 9.04455 -1.12892 0
    endloop
  endfacet
  facet normal 0.995185 0.0980165 0
    outer loop
      vertex 8.82 0 6
      vertex 8.87668 -0.575516 6
      vertex 8.87668 -0.575516 0
    endloop
  endfacet
  facet normal 0.995185 0.0980165 0
    outer loop
      vertex 8.82 0 0
      vertex 8.82 0 6
      vertex 8.87668 -0.575516 0
    endloop
  endfacet
  facet normal 0.995185 -0.0980165 0
    outer loop
      vertex 8.87668 0.575516 0
      vertex 8.87668 0.575516 6
      vertex 8.82 0 6
    endloop
  endfacet
  facet normal 0.995185 -0.0980165 0
    outer loop
      vertex 8.82 0 0
      vertex 8.87668 0.575516 0
      vertex 8.82 0 6
    endloop
  endfacet
  facet normal 0.95694 -0.290285 0
    outer loop
      vertex 9.04455 1.12892 0
      vertex 9.04455 1.12892 6
      vertex 8.87668 0.575516 6
    endloop
  endfacet
  facet normal 0.95694 -0.290285 0
    outer loop
      vertex 8.87668 0.575516 0
      vertex 9.04455 1.12892 0
      vertex 8.87668 0.575516 6
    endloop
  endfacet
  facet normal 0.881921 -0.471398 0
    outer loop
      vertex 9.31716 1.63893 0
      vertex 9.31716 1.63893 6
      vertex 9.04455 1.12892 6
    endloop
  endfacet
  facet normal 0.881921 -0.471398 0
    outer loop
      vertex 9.04455 1.12892 0
      vertex 9.31716 1.63893 0
      vertex 9.04455 1.12892 6
    endloop
  endfacet
  facet normal 0.773011 -0.634393 0
    outer loop
      vertex 9.68403 2.08596 0
      vertex 9.68403 2.08596 6
      vertex 9.31716 1.63893 6
    endloop
  endfacet
  facet normal 0.773011 -0.634393 0
    outer loop
      vertex 9.31716 1.63893 0
      vertex 9.68403 2.08596 0
      vertex 9.31716 1.63893 6
    endloop
  endfacet
  facet normal 0.634393 -0.773011 0
    outer loop
      vertex 10.1311 2.45283 0
      vertex 10.1311 2.45283 6
      vertex 9.68403 2.08596 6
    endloop
  endfacet
  facet normal 0.634393 -0.773011 0
    outer loop
      vertex 9.68403 2.08596 0
      vertex 10.1311 2.45283 0
      vertex 9.68403 2.08596 6
    endloop
  endfacet
  facet normal 0.471398 -0.881921 0
    outer loop
      vertex 10.6411 2.72544 0
      vertex 10.6411 2.72544 6
      vertex 10.1311 2.45283 6
    endloop
  endfacet
  facet normal 0.471398 -0.881921 0
    outer loop
      vertex 10.1311 2.45283 0
      vertex 10.6411 2.72544 0
      vertex 10.1311 2.45283 6
    endloop
  endfacet
  facet normal 0.290285 -0.95694 0
    outer loop
      vertex 11.1945 2.89332 0
      vertex 11.1945 2.89332 6
      vertex 10.6411 2.72544 6
    endloop
  endfacet
  facet normal 0.290285 -0.95694 0
    outer loop
      vertex 10.6411 2.72544 0
      vertex 11.1945 2.89332 0
      vertex 10.6411 2.72544 6
    endloop
  endfacet
  facet normal 0.0980165 -0.995185 0
    outer loop
      vertex 11.77 2.95 0
      vertex 11.77 2.95 6
      vertex 11.1945 2.89332 6
    endloop
  endfacet
  facet normal 0.0980165 -0.995185 0
    outer loop
      vertex 11.1945 2.89332 0
      vertex 11.77 2.95 0
      vertex 11.1945 2.89332 6
    endloop
  endfacet
  facet normal -0.0980165 -0.995185 0
    outer loop
      vertex 12.3455 2.89332 0
      vertex 12.3455 2.89332 6
      vertex 11.77 2.95 6
    endloop
  endfacet
  facet normal -0.0980165 -0.995185 0
    outer loop
      vertex 11.77 2.95 0
      vertex 12.3455 2.89332 0
      vertex 11.77 2.95 6
    endloop
  endfacet
  facet normal -0.290285 -0.95694 0
    outer loop
      vertex 12.8989 2.72544 0
      vertex 12.8989 2.72544 6
      vertex 12.3455 2.89332 6
    endloop
  endfacet
  facet normal -0.290285 -0.95694 0
    outer loop
      vertex 12.3455 2.89332 0
      vertex 12.8989 2.72544 0
      vertex 12.3455 2.89332 6
    endloop
  endfacet
  facet normal -0.471398 -0.881921 0
    outer loop
      vertex 13.4089 2.45283 0
      vertex 13.4089 2.45283 6
      vertex 12.8989 2.72544 6
    endloop
  endfacet
  facet normal -0.471398 -0.881921 0
    outer loop
      vertex 12.8989 2.72544 0
      vertex 13.4089 2.45283 0
      vertex 12.8989 2.72544 6
    endloop
  endfacet
  facet normal -0.634393 -0.773011 0
    outer loop
      vertex 13.54 2.34527 0
      vertex 13.54 2.34527 6
      vertex 13.4089 2.45283 6
    endloop
  endfacet
  facet normal -0.634393 -0.773011 0
    outer loop
      vertex 13.4089 2.45283 0
      vertex 13.54 2.34527 0
      vertex 13.4089 2.45283 6
    endloop
  endfacet
  facet normal 1 0 0
    outer loop
      vertex 13.54 3.17268 0
      vertex 13.54 3.17268 6
      vertex 13.54 2.34527 6
    endloop
  endfacet
  facet normal 1 0 0
    outer loop
      vertex 13.54 2.34527 0
      vertex 13.54 3.17268 0
      vertex 13.54 2.34527 6
    endloop
  endfacet
  facet normal 0.471397 0.881921 0
    outer loop
      vertex 13.1668 3.37216 0
      vertex 13.1668 3.37216 6
      vertex 13.54 3.17268 0
    endloop
  endfacet
  facet normal 0.471397 0.881921 0
    outer loop
      vertex 13.54 3.17268 0
      vertex 13.1668 3.37216 6
      vertex 13.54 3.17268 6
    endloop
  endfacet
  facet normal 0.290285 0.95694 0
    outer loop
      vertex 12.4821 3.57987 0
      vertex 12.4821 3.57987 6
      vertex 13.1668 3.37216 0
    endloop
  endfacet
  facet normal 0.290285 0.95694 0
    outer loop
      vertex 13.1668 3.37216 0
      vertex 12.4821 3.57987 6
      vertex 13.1668 3.37216 6
    endloop
  endfacet
  facet normal 0.0980175 0.995185 0
    outer loop
      vertex 11.77 3.65 0
      vertex 11.77 3.65 6
      vertex 12.4821 3.57987 0
    endloop
  endfacet
  facet normal 0.0980175 0.995185 0
    outer loop
      vertex 12.4821 3.57987 0
      vertex 11.77 3.65 6
      vertex 12.4821 3.57987 6
    endloop
  endfacet
  facet normal -0.0980175 0.995185 0
    outer loop
      vertex 11.0579 3.57987 0
      vertex 11.0579 3.57987 6
      vertex 11.77 3.65 0
    endloop
  endfacet
  facet normal -0.0980175 0.995185 0
    outer loop
      vertex 11.77 3.65 0
      vertex 11.0579 3.57987 6
      vertex 11.77 3.65 6
    endloop
  endfacet
  facet normal -0.290285 0.95694 0
    outer loop
      vertex 10.3732 3.37216 0
      vertex 10.3732 3.37216 6
      vertex 11.0579 3.57987 0
    endloop
  endfacet
  facet normal -0.290285 0.95694 0
    outer loop
      vertex 11.0579 3.57987 0
      vertex 10.3732 3.37216 6
      vertex 11.0579 3.57987 6
    endloop
  endfacet
  facet normal -0.471397 0.881921 0
    outer loop
      vertex 9.74217 3.03486 1.5
      vertex 9.74217 3.03486 6
      vertex 9.95757 3.15 1.5
    endloop
  endfacet
  facet normal -0.471397 0.881921 0
    outer loop
      vertex 9.95757 3.15 1.5
      vertex 9.74217 3.03486 6
      vertex 10.3732 3.37216 6
    endloop
  endfacet
  facet normal -0.471397 0.881921 0
    outer loop
      vertex 9.95757 3.15 1.5
      vertex 10.3732 3.37216 6
      vertex 10.3732 3.37216 0
    endloop
  endfacet
  facet normal -0.471397 0.881921 0
    outer loop
      vertex 10.3732 3.37216 0
      vertex 10.0275 3.1874 0
      vertex 10.0275 3.1874 0.75
    endloop
  endfacet
  facet normal -0.471397 0.881921 0
    outer loop
      vertex 9.95757 3.15 1.5
      vertex 10.3732 3.37216 0
      vertex 10.0275 3.1874 0.75
    endloop
  endfacet
  facet normal -0.471397 0.881921 0
    outer loop
      vertex 9.95757 3.15 1.5
      vertex 10.0275 3.1874 0.75
      vertex 9.95757 3.15 0.75
    endloop
  endfacet
  facet normal -0.256598 0.966518 0
    outer loop
      vertex 9.88667 3.15 0
      vertex 9.88667 3.15 0.75
      vertex 10.0275 3.1874 0
    endloop
  endfacet
  facet normal -0.256598 0.966518 0
    outer loop
      vertex 10.0275 3.1874 0
      vertex 9.88667 3.15 0.75
      vertex 10.0275 3.1874 0.75
    endloop
  endfacet
  facet normal 0 1 0
    outer loop
      vertex 6.12 3.15 0
      vertex 6.12 3.15 1.5
      vertex 9.88667 3.15 0
    endloop
  endfacet
  facet normal 0 1 0
    outer loop
      vertex 9.88667 3.15 0.75
      vertex 6.12 3.15 1.5
      vertex 9.95757 3.15 1.5
    endloop
  endfacet
  facet normal 0 1 0
    outer loop
      vertex 9.88667 3.15 0
      vertex 6.12 3.15 1.5
      vertex 9.88667 3.15 0.75
    endloop
  endfacet
  facet normal 0 1 0
    outer loop
      vertex 9.88667 3.15 0.75
      vertex 9.95757 3.15 1.5
      vertex 9.95757 3.15 0.75
    endloop
  endfacet
  facet normal 0.0598598 0.998207 0
    outer loop
      vertex 0 3.517 0
      vertex 0 3.517 6.20748e-20
      vertex 6.12 3.15 0
    endloop
  endfacet
  facet normal 0.0598598 0.998207 0
    outer loop
      vertex 6.12 3.15 0
      vertex 0 3.517 6.20748e-20
      vertex 0.028822 3.51527 0.292635
    endloop
  endfacet
  facet normal 0.0598598 0.998207 0
    outer loop
      vertex 6.12 3.15 0
      vertex 0.028822 3.51527 0.292635
      vertex 0.114181 3.51015 0.574025
    endloop
  endfacet
  facet normal 0.0598598 0.998207 0
    outer loop
      vertex 6.12 3.15 0
      vertex 0.114181 3.51015 0.574025
      vertex 0.252796 3.50184 0.833355
    endloop
  endfacet
  facet normal 0.0598598 0.998207 0
    outer loop
      vertex 6.12 3.15 0
      vertex 0.252796 3.50184 0.833355
      vertex 0.43934 3.49065 1.06066
    endloop
  endfacet
  facet normal 0.0598598 0.998207 0
    outer loop
      vertex 6.12 3.15 0
      vertex 0.43934 3.49065 1.06066
      vertex 0.666645 3.47702 1.2472
    endloop
  endfacet
  facet normal 0.0598598 0.998207 0
    outer loop
      vertex 6.12 3.15 0
      vertex 0.666645 3.47702 1.2472
      vertex 0.925975 3.46147 1.38582
    endloop
  endfacet
  facet normal 0.0598598 0.998207 0
    outer loop
      vertex 6.12 3.15 0
      vertex 0.925975 3.46147 1.38582
      vertex 1.20737 3.4446 1.47118
    endloop
  endfacet
  facet normal 0.0598598 0.998207 0
    outer loop
      vertex 6.12 3.15 0
      vertex 1.20737 3.4446 1.47118
      vertex 1.5 3.42705 1.5
    endloop
  endfacet
  facet normal 0.0598598 0.998207 0
    outer loop
      vertex 6.12 3.15 0
      vertex 1.5 3.42705 1.5
      vertex 6.12 3.15 1.5
    endloop
  endfacet
  facet normal -1 0 0
    outer loop
      vertex 0 2.51728 0
      vertex 0 2.51728 2.22045e-16
      vertex 0 3.517 0
    endloop
  endfacet
  facet normal -1 0 0
    outer loop
      vertex 0 3.517 0
      vertex 0 2.51728 2.22045e-16
      vertex 0 3.517 6.20748e-20
    endloop
  endfacet
  facet normal -0.0861671 0.996281 0
    outer loop
      vertex -0.559258 2.46891 0
      vertex -0.559258 2.46891 0.75
      vertex 0 2.51728 0
    endloop
  endfacet
  facet normal -0.0861671 0.996281 0
    outer loop
      vertex 0 2.51728 2.22045e-16
      vertex -0.559258 2.46891 0.75
      vertex 0 2.51728 0.75
    endloop
  endfacet
  facet normal -0.0861671 0.996281 0
    outer loop
      vertex 0 2.51728 0
      vertex -0.559258 2.46891 0.75
      vertex 0 2.51728 2.22045e-16
    endloop
  endfacet
  facet normal -0.257397 0.966306 0
    outer loop
      vertex -1.09702 2.32566 0
      vertex -1.09702 2.32566 0.75
      vertex -0.559258 2.46891 0
    endloop
  endfacet
  facet normal -0.257397 0.966306 0
    outer loop
      vertex -0.559258 2.46891 0
      vertex -1.09702 2.32566 0.75
      vertex -0.559258 2.46891 0.75
    endloop
  endfacet
  facet normal -0.42489 0.905245 0
    outer loop
      vertex -1.59263 2.09304 0
      vertex -1.59263 2.09304 0.75
      vertex -1.09702 2.32566 0
    endloop
  endfacet
  facet normal -0.42489 0.905245 0
    outer loop
      vertex -1.09702 2.32566 0
      vertex -1.59263 2.09304 0.75
      vertex -1.09702 2.32566 0.75
    endloop
  endfacet
  facet normal -0.584654 0.811283 0
    outer loop
      vertex -2.02704 1.77999 0
      vertex -2.02704 1.77999 0.75
      vertex -1.59263 2.09304 0
    endloop
  endfacet
  facet normal -0.584654 0.811283 0
    outer loop
      vertex -1.59263 2.09304 0
      vertex -2.02704 1.77999 0.75
      vertex -1.59263 2.09304 0.75
    endloop
  endfacet
  facet normal -0.730599 0.682806 0
    outer loop
      vertex -2.38355 1.39853 0
      vertex -2.38355 1.39853 0.75
      vertex -2.02704 1.77999 0
    endloop
  endfacet
  facet normal -0.730599 0.682806 0
    outer loop
      vertex -2.02704 1.77999 0
      vertex -2.38355 1.39853 0.75
      vertex -2.02704 1.77999 0.75
    endloop
  endfacet
  facet normal -0.854197 0.519949 0
    outer loop
      vertex -2.64846 0.96332 0
      vertex -2.64846 0.96332 0.75
      vertex -2.38355 1.39853 0
    endloop
  endfacet
  facet normal -0.854197 0.519949 0
    outer loop
      vertex -2.38355 1.39853 0
      vertex -2.64846 0.96332 0.75
      vertex -2.38355 1.39853 0.75
    endloop
  endfacet
  facet normal -0.945193 0.326513 0
    outer loop
      vertex -2.81158 0.491096 0
      vertex -2.81158 0.491096 0.75
      vertex -2.64846 0.96332 0
    endloop
  endfacet
  facet normal -0.945193 0.326513 0
    outer loop
      vertex -2.64846 0.96332 0
      vertex -2.81158 0.491096 0.75
      vertex -2.64846 0.96332 0.75
    endloop
  endfacet
  facet normal 1 0 0
    outer loop
      vertex 4.25 1.5 0
      vertex 4.25 1.5 0.75
      vertex 4.25 -1.5 0.75
    endloop
  endfacet
  facet normal 1 0 0
    outer loop
      vertex 4.25 -1.5 0
      vertex 4.25 1.5 0
      vertex 4.25 -1.5 0.75
    endloop
  endfacet
  facet normal 0 -1 0
    outer loop
      vertex 6.25 1.5 0
      vertex 6.25 1.5 0.75
      vertex 4.25 1.5 0.75
    endloop
  endfacet
  facet normal 0 -1 0
    outer loop
      vertex 4.25 1.5 0
      vertex 6.25 1.5 0
      vertex 4.25 1.5 0.75
    endloop
  endfacet
  facet normal -1 0 0
    outer loop
      vertex 6.25 1.5 0.75
      vertex 6.25 1.5 0
      vertex 6.25 -1.5 0.75
    endloop
  endfacet
  facet normal -1 0 0
    outer loop
      vertex 6.25 -1.5 0.75
      vertex 6.25 1.5 0
      vertex 6.25 -1.5 0
    endloop
  endfacet
  facet normal 0 1 0
    outer loop
      vertex 6.25 -1.5 0.75
      vertex 6.25 -1.5 0
      vertex 4.25 -1.5 0.75
    endloop
  endfacet
  facet normal 0 1 0
    outer loop
      vertex 4.25 -1.5 0.75
      vertex 6.25 -1.5 0
      vertex 4.25 -1.5 0
    endloop
  endfacet
  facet normal 0 0 1
    outer loop
      vertex -2.81158 -0.491096 0.75
      vertex -2.64846 -0.96332 0.75
      vertex -2.38355 -1.39853 0.75
    endloop
  endfacet
  facet normal 0 0 1
    outer loop
      vertex -1.59263 -2.09304 0.75
      vertex -2.81158 -0.491096 0.75
      vertex -2.02704 -1.77999 0.75
    endloop
  endfacet
  facet normal 0 0 1
    outer loop
      vertex -2.02704 -1.77999 0.75
      vertex -2.81158 -0.491096 0.75
      vertex -2.38355 -1.39853 0.75
    endloop
  endfacet
  facet normal 0 0 1
    outer loop
      vertex -1.09702 -2.32566 0.75
      vertex -2.81158 -0.491096 0.75
      vertex -1.59263 -2.09304 0.75
    endloop
  endfacet
  facet normal 0 0 1
    outer loop
      vertex -0.559258 -2.46891 0.75
      vertex -2.81158 -0.491096 0.75
      vertex -1.09702 -2.32566 0.75
    endloop
  endfacet
  facet normal 0 0 1
    outer loop
      vertex 0 -2.51728 0.75
      vertex -2.81158 -0.491096 0.75
      vertex -0.559258 -2.46891 0.75
    endloop
  endfacet
  facet normal 0 0 1
    outer loop
      vertex 0.0105409 -2.51637 0.75
      vertex -2.81158 -0.491096 0.75
      vertex 0 -2.51728 0.75
    endloop
  endfacet
  facet normal 0 0 1
    outer loop
      vertex 0.208242 -2.50451 0.75
      vertex -2.81158 -0.491096 0.75
      vertex 0.0105409 -2.51637 0.75
    endloop
  endfacet
  facet normal 0 0 1
    outer loop
      vertex 6.12 -2.15 0.75
      vertex -2.81158 -0.491096 0.75
      vertex 0.208242 -2.50451 0.75
    endloop
  endfacet
  facet normal 0 0 1
    outer loop
      vertex 4.25 -1.5 0.75
      vertex -2.81158 -0.491096 0.75
      vertex 6.12 -2.15 0.75
    endloop
  endfacet
  facet normal 0 0 1
    outer loop
      vertex -0.45 0 0.75
      vertex -0.415746 0.172208 0.75
      vertex -2.81158 -0.491096 0.75
    endloop
  endfacet
  facet normal 0 0 1
    outer loop
      vertex 8.16925 -0.5 0.75
      vertex 6.25362 -0.5 0.75
      vertex 8.19013 -0.71208 0.75
    endloop
  endfacet
  facet normal 0 0 1
    outer loop
      vertex 0 -0.45 0.75
      vertex -0.172208 -0.415746 0.75
      vertex -2.81158 -0.491096 0.75
    endloop
  endfacet
  facet normal 0 0 1
    outer loop
      vertex 8.19013 0.71208 0.75
      vertex 6.25362 0.5 0.75
      vertex 8.16925 0.5 0.75
    endloop
  endfacet
  facet normal 0 0 1
    outer loop
      vertex 6.25 1.5 0.75
      vertex 6.25362 0.5 0.75
      vertex 8.19013 0.71208 0.75
    endloop
  endfacet
  facet normal 0 0 1
    outer loop
      vertex 6.25 1.5 0.75
      vertex 8.19013 0.71208 0.75
      vertex 8.39784 1.3968 0.75
    endloop
  endfacet
  facet normal 0 0 1
    outer loop
      vertex 0 0.45 0.75
      vertex 0.172208 0.415746 0.75
      vertex 6.12 2.15 0.75
    endloop
  endfacet
  facet normal 0 0 1
    outer loop
      vertex 0.0105409 2.51637 0.75
      vertex -2.81158 -0.491096 0.75
      vertex 0.208242 2.50451 0.75
    endloop
  endfacet
  facet normal 0 0 1
    outer loop
      vertex 0 2.51728 0.75
      vertex -2.81158 -0.491096 0.75
      vertex 0.0105409 2.51637 0.75
    endloop
  endfacet
  facet normal 0 0 1
    outer loop
      vertex -0.559258 2.46891 0.75
      vertex -2.81158 -0.491096 0.75
      vertex 0 2.51728 0.75
    endloop
  endfacet
  facet normal 0 0 1
    outer loop
      vertex -1.09702 2.32566 0.75
      vertex -2.81158 -0.491096 0.75
      vertex -0.559258 2.46891 0.75
    endloop
  endfacet
  facet normal 0 0 1
    outer loop
      vertex -1.59263 2.09304 0.75
      vertex -2.81158 -0.491096 0.75
      vertex -1.09702 2.32566 0.75
    endloop
  endfacet
  facet normal 0 0 1
    outer loop
      vertex -2.02704 1.77999 0.75
      vertex -2.81158 -0.491096 0.75
      vertex -1.59263 2.09304 0.75
    endloop
  endfacet
  facet normal 0 0 1
    outer loop
      vertex -2.38355 1.39853 0.75
      vertex -2.81158 -0.491096 0.75
      vertex -2.02704 1.77999 0.75
    endloop
  endfacet
  facet normal 0 0 1
    outer loop
      vertex -2.64846 0.96332 0.75
      vertex -2.81158 -0.491096 0.75
      vertex -2.38355 1.39853 0.75
    endloop
  endfacet
  facet normal 0 0 1
    outer loop
      vertex -2.81158 0.491096 0.75
      vertex -2.81158 -0.491096 0.75
      vertex -2.64846 0.96332 0.75
    endloop
  endfacet
  facet normal 0 0 1
    outer loop
      vertex -2.86667 0 0.75
      vertex -2.81158 -0.491096 0.75
      vertex -2.81158 0.491096 0.75
    endloop
  endfacet
  facet normal 0 0 1
    outer loop
      vertex 6.25 1.5 0.75
      vertex 6.25 -1.5 0.75
      vertex 6.25362 -0.5 0.75
    endloop
  endfacet
  facet normal 0 0 1
    outer loop
      vertex 0.172208 0.415746 0.75
      vertex 4.25 1.5 0.75
      vertex 6.12 2.15 0.75
    endloop
  endfacet
  facet normal 0 0 1
    outer loop
      vertex 0.208242 2.50451 0.75
      vertex -2.81158 -0.491096 0.75
      vertex -0.318198 0.318198 0.75
    endloop
  endfacet
  facet normal 0 0 1
    outer loop
      vertex 0.208242 2.50451 0.75
      vertex -0.172208 0.415746 0.75
      vertex 6.12 2.15 0.75
    endloop
  endfacet
  facet normal 0 0 1
    outer loop
      vertex 0.208242 2.50451 0.75
      vertex -0.318198 0.318198 0.75
      vertex -0.172208 0.415746 0.75
    endloop
  endfacet
  facet normal 0 0 1
    outer loop
      vertex -0.172208 0.415746 0.75
      vertex 0 0.45 0.75
      vertex 6.12 2.15 0.75
    endloop
  endfacet
  facet normal 0 0 1
    outer loop
      vertex 4.25 1.5 0.75
      vertex 6.25 1.5 0.75
      vertex 8.8354 2.15 0.75
    endloop
  endfacet
  facet normal 0 0 1
    outer loop
      vertex -0.415746 -0.172208 0.75
      vertex -0.45 0 0.75
      vertex -2.81158 -0.491096 0.75
    endloop
  endfacet
  facet normal 0 0 1
    outer loop
      vertex -0.172208 -0.415746 0.75
      vertex -0.318198 -0.318198 0.75
      vertex -2.81158 -0.491096 0.75
    endloop
  endfacet
  facet normal 0 0 1
    outer loop
      vertex -0.318198 -0.318198 0.75
      vertex -0.415746 -0.172208 0.75
      vertex -2.81158 -0.491096 0.75
    endloop
  endfacet
  facet normal 0 0 1
    outer loop
      vertex 6.25 1.5 0.75
      vertex 8.39784 1.3968 0.75
      vertex 8.73514 2.02783 0.75
    endloop
  endfacet
  facet normal 0 0 1
    outer loop
      vertex 6.12 2.15 0.75
      vertex 4.25 1.5 0.75
      vertex 8.8354 2.15 0.75
    endloop
  endfacet
  facet normal 0 0 1
    outer loop
      vertex 6.25 1.5 0.75
      vertex 6.25362 -0.5 0.75
      vertex 6.25362 0.5 0.75
    endloop
  endfacet
  facet normal 0 0 1
    outer loop
      vertex 8.8354 2.15 0.75
      vertex 6.25 1.5 0.75
      vertex 8.73514 2.02783 0.75
    endloop
  endfacet
  facet normal 0 0 1
    outer loop
      vertex -0.415746 0.172208 0.75
      vertex -0.318198 0.318198 0.75
      vertex -2.81158 -0.491096 0.75
    endloop
  endfacet
  facet normal 0 0 1
    outer loop
      vertex 8.39784 -1.3968 0.75
      vertex 6.25 -1.5 0.75
      vertex 8.73514 -2.02783 0.75
    endloop
  endfacet
  facet normal 0 0 1
    outer loop
      vertex 8.8354 -2.15 0.75
      vertex 4.25 -1.5 0.75
      vertex 6.12 -2.15 0.75
    endloop
  endfacet
  facet normal 0 0 1
    outer loop
      vertex 6.25362 -0.5 0.75
      vertex 8.39784 -1.3968 0.75
      vertex 8.19013 -0.71208 0.75
    endloop
  endfacet
  facet normal 0 0 1
    outer loop
      vertex 6.25362 -0.5 0.75
      vertex 6.25 -1.5 0.75
      vertex 8.39784 -1.3968 0.75
    endloop
  endfacet
  facet normal 0 0 1
    outer loop
      vertex 6.25 -1.5 0.75
      vertex 8.8354 -2.15 0.75
      vertex 8.73514 -2.02783 0.75
    endloop
  endfacet
  facet normal 0 0 1
    outer loop
      vertex 6.25 -1.5 0.75
      vertex 4.25 -1.5 0.75
      vertex 8.8354 -2.15 0.75
    endloop
  endfacet
  facet normal 0 0 1
    outer loop
      vertex 4.25 -1.5 0.75
      vertex 0 -0.45 0.75
      vertex -2.81158 -0.491096 0.75
    endloop
  endfacet
  facet normal 0 0 1
    outer loop
      vertex 4.25 -1.5 0.75
      vertex 0.172208 -0.415746 0.75
      vertex 0 -0.45 0.75
    endloop
  endfacet
  facet normal 0 0 1
    outer loop
      vertex 4.25 -1.5 0.75
      vertex 0.318198 -0.318198 0.75
      vertex 0.172208 -0.415746 0.75
    endloop
  endfacet
  facet normal 0 0 1
    outer loop
      vertex 4.25 -1.5 0.75
      vertex 0.415746 -0.172208 0.75
      vertex 0.318198 -0.318198 0.75
    endloop
  endfacet
  facet normal 0 0 1
    outer loop
      vertex 4.25 -1.5 0.75
      vertex 0.45 0 0.75
      vertex 0.415746 -0.172208 0.75
    endloop
  endfacet
  facet normal 0 0 1
    outer loop
      vertex 4.25 -1.5 0.75
      vertex 0.415746 0.172208 0.75
      vertex 0.45 0 0.75
    endloop
  endfacet
  facet normal 0 0 1
    outer loop
      vertex 4.25 -1.5 0.75
      vertex 0.318198 0.318198 0.75
      vertex 0.415746 0.172208 0.75
    endloop
  endfacet
  facet normal 0 0 1
    outer loop
      vertex 4.25 -1.5 0.75
      vertex 0.172208 0.415746 0.75
      vertex 0.318198 0.318198 0.75
    endloop
  endfacet
  facet normal 0 0 1
    outer loop
      vertex 4.25 -1.5 0.75
      vertex 4.25 1.5 0.75
      vertex 0.172208 0.415746 0.75
    endloop
  endfacet
  facet normal 0.0861671 -0.996281 0
    outer loop
      vertex 0 -2.51728 0.75
      vertex 0 -2.51728 2.22045e-16
      vertex 0.0105409 -2.51637 0.107024
    endloop
  endfacet
  facet normal 0.0861671 -0.996281 0
    outer loop
      vertex 0.0105409 -2.51637 0.75
      vertex 0 -2.51728 0.75
      vertex 0.0105409 -2.51637 0.107024
    endloop
  endfacet
  facet normal -0.995185 -2.17642e-17 0.098017
    outer loop
      vertex 0.028822 -2.51527 0.292635
      vertex 0.0105409 -2.51637 0.107024
      vertex 0.028822 -3.51527 0.292635
    endloop
  endfacet
  facet normal -0.995185 -2.17642e-17 0.098017
    outer loop
      vertex 0.028822 -3.51527 0.292635
      vertex 0.0105409 -2.51637 0.107024
      vertex 0 -2.51728 2.22045e-16
    endloop
  endfacet
  facet normal -0.995185 -2.17642e-17 0.098017
    outer loop
      vertex 0.028822 -3.51527 0.292635
      vertex 0 -2.51728 2.22045e-16
      vertex 0 -3.517 6.20748e-20
    endloop
  endfacet
  facet normal -0.95694 -6.44563e-17 0.290286
    outer loop
      vertex 0.114181 -2.51015 0.574025
      vertex 0.028822 -2.51527 0.292635
      vertex 0.114181 -3.51015 0.574025
    endloop
  endfacet
  facet normal -0.95694 -6.44563e-17 0.290286
    outer loop
      vertex 0.114181 -3.51015 0.574025
      vertex 0.028822 -2.51527 0.292635
      vertex 0.028822 -3.51527 0.292635
    endloop
  endfacet
  facet normal -0.881921 -1.04671e-16 0.471397
    outer loop
      vertex 0.252796 -2.50184 0.833355
      vertex 0.208242 -2.50451 0.75
      vertex 0.252796 -3.50184 0.833355
    endloop
  endfacet
  facet normal -0.881921 -1.04671e-16 0.471397
    outer loop
      vertex 0.252796 -3.50184 0.833355
      vertex 0.208242 -2.50451 0.75
      vertex 0.114181 -2.51015 0.574025
    endloop
  endfacet
  facet normal -0.881921 -1.04671e-16 0.471397
    outer loop
      vertex 0.252796 -3.50184 0.833355
      vertex 0.114181 -2.51015 0.574025
      vertex 0.114181 -3.51015 0.574025
    endloop
  endfacet
  facet normal -0.773011 -1.40863e-16 0.634392
    outer loop
      vertex 0.43934 -2.49065 1.06066
      vertex 0.252796 -2.50184 0.833355
      vertex 0.43934 -3.49065 1.06066
    endloop
  endfacet
  facet normal -0.773011 -1.40863e-16 0.634392
    outer loop
      vertex 0.43934 -3.49065 1.06066
      vertex 0.252796 -2.50184 0.833355
      vertex 0.252796 -3.50184 0.833355
    endloop
  endfacet
  facet normal -0.634392 -1.71643e-16 0.773011
    outer loop
      vertex 0.666645 -3.47702 1.2472
      vertex 0.666645 -2.47702 1.2472
      vertex 0.43934 -2.49065 1.06066
    endloop
  endfacet
  facet normal -0.634392 -1.71643e-16 0.773011
    outer loop
      vertex 0.43934 -3.49065 1.06066
      vertex 0.666645 -3.47702 1.2472
      vertex 0.43934 -2.49065 1.06066
    endloop
  endfacet
  facet normal -0.471397 -1.95826e-16 0.881921
    outer loop
      vertex 0.925975 -3.46147 1.38582
      vertex 0.925975 -2.46147 1.38582
      vertex 0.666645 -2.47702 1.2472
    endloop
  endfacet
  facet normal -0.471397 -1.95826e-16 0.881921
    outer loop
      vertex 0.666645 -3.47702 1.2472
      vertex 0.925975 -3.46147 1.38582
      vertex 0.666645 -2.47702 1.2472
    endloop
  endfacet
  facet normal -0.290286 -2.12483e-16 0.95694
    outer loop
      vertex 1.20737 -3.4446 1.47118
      vertex 1.20737 -2.4446 1.47118
      vertex 0.925975 -2.46147 1.38582
    endloop
  endfacet
  facet normal -0.290286 -2.12483e-16 0.95694
    outer loop
      vertex 0.925975 -3.46147 1.38582
      vertex 1.20737 -3.4446 1.47118
      vertex 0.925975 -2.46147 1.38582
    endloop
  endfacet
  facet normal -0.098017 -2.20975e-16 0.995185
    outer loop
      vertex 1.5 -3.42705 1.5
      vertex 1.5 -2.42705 1.5
      vertex 1.20737 -2.4446 1.47118
    endloop
  endfacet
  facet normal -0.098017 -2.20975e-16 0.995185
    outer loop
      vertex 1.20737 -3.4446 1.47118
      vertex 1.5 -3.42705 1.5
      vertex 1.20737 -2.4446 1.47118
    endloop
  endfacet
  facet normal 0 0 1
    outer loop
      vertex 9.74217 -3.03486 1.5
      vertex 6.12 -3.15 1.5
      vertex 9.95757 -3.15 1.5
    endloop
  endfacet
  facet normal 0 0 1
    outer loop
      vertex 9.18906 -2.58094 1.5
      vertex 6.12 -3.15 1.5
      vertex 9.74217 -3.03486 1.5
    endloop
  endfacet
  facet normal 0 0 1
    outer loop
      vertex 1.5 -3.42705 1.5
      vertex 6.12 -3.15 1.5
      vertex 9.18906 -2.58094 1.5
    endloop
  endfacet
  facet normal 0 0 1
    outer loop
      vertex 8.8354 -2.15 1.5
      vertex 1.5 -3.42705 1.5
      vertex 9.18906 -2.58094 1.5
    endloop
  endfacet
  facet normal 0 0 1
    outer loop
      vertex 6.12 -2.15 1.5
      vertex 1.5 -3.42705 1.5
      vertex 8.8354 -2.15 1.5
    endloop
  endfacet
  facet normal 0 0 1
    outer loop
      vertex 1.5 -2.42705 1.5
      vertex 1.5 -3.42705 1.5
      vertex 6.12 -2.15 1.5
    endloop
  endfacet
  facet normal 0 0 1
    outer loop
      vertex 10.0275 -3.1874 0.75
      vertex 9.95757 -3.15 0.75
      vertex 9.88667 -3.15 0.75
    endloop
  endfacet
  facet normal 0 0 1
    outer loop
      vertex 8.19013 0.71208 6
      vertex 8.12 0 6
      vertex 8.19013 -0.71208 6
    endloop
  endfacet
  facet normal 0 0 1
    outer loop
      vertex 8.73514 -2.02783 6
      vertex 8.19013 0.71208 6
      vertex 8.39784 -1.3968 6
    endloop
  endfacet
  facet normal 0 0 1
    outer loop
      vertex 8.39784 -1.3968 6
      vertex 8.19013 0.71208 6
      vertex 8.19013 -0.71208 6
    endloop
  endfacet
  facet normal 0 0 1
    outer loop
      vertex 9.18906 -2.58094 6
      vertex 8.19013 0.71208 6
      vertex 8.73514 -2.02783 6
    endloop
  endfacet
  facet normal 0 0 1
    outer loop
      vertex 9.74217 -3.03486 6
      vertex 8.19013 0.71208 6
      vertex 9.18906 -2.58094 6
    endloop
  endfacet
  facet normal 0 0 1
    outer loop
      vertex 9.04455 -1.12892 6
      vertex 8.19013 0.71208 6
      vertex 9.74217 -3.03486 6
    endloop
  endfacet
  facet normal 0 0 1
    outer loop
      vertex 9.04455 -1.12892 6
      vertex 8.87668 -0.575516 6
      vertex 8.19013 0.71208 6
    endloop
  endfacet
  facet normal 0 0 1
    outer loop
      vertex 10.1311 -2.45283 6
      vertex 9.68403 -2.08596 6
      vertex 10.3732 -3.37216 6
    endloop
  endfacet
  facet normal 0 0 1
    outer loop
      vertex 10.6411 -2.72544 6
      vertex 10.1311 -2.45283 6
      vertex 11.0579 -3.57987 6
    endloop
  endfacet
  facet normal 0 0 1
    outer loop
      vertex 11.1945 -2.89332 6
      vertex 10.6411 -2.72544 6
      vertex 11.77 -3.65 6
    endloop
  endfacet
  facet normal 0 0 1
    outer loop
      vertex 12.3455 -2.89332 6
      vertex 11.77 -2.95 6
      vertex 12.4821 -3.57987 6
    endloop
  endfacet
  facet normal 0 0 1
    outer loop
      vertex 12.8989 -2.72544 6
      vertex 12.3455 -2.89332 6
      vertex 13.1668 -3.37216 6
    endloop
  endfacet
  facet normal 0 0 1
    outer loop
      vertex 13.54 -2.34527 6
      vertex 13.4089 -2.45283 6
      vertex 13.54 -3.17268 6
    endloop
  endfacet
  facet normal 0 0 1
    outer loop
      vertex 13.54 -3.17268 6
      vertex 12.8989 -2.72544 6
      vertex 13.1668 -3.37216 6
    endloop
  endfacet
  facet normal 0 0 1
    outer loop
      vertex 13.1668 -3.37216 6
      vertex 12.3455 -2.89332 6
      vertex 12.4821 -3.57987 6
    endloop
  endfacet
  facet normal 0 0 1
    outer loop
      vertex 12.4821 -3.57987 6
      vertex 11.77 -2.95 6
      vertex 11.77 -3.65 6
    endloop
  endfacet
  facet normal 0 0 1
    outer loop
      vertex 11.77 -2.95 6
      vertex 11.1945 -2.89332 6
      vertex 11.77 -3.65 6
    endloop
  endfacet
  facet normal 0 0 1
    outer loop
      vertex 11.77 -3.65 6
      vertex 10.6411 -2.72544 6
      vertex 11.0579 -3.57987 6
    endloop
  endfacet
  facet normal 0 0 1
    outer loop
      vertex 11.0579 -3.57987 6
      vertex 10.1311 -2.45283 6
      vertex 10.3732 -3.37216 6
    endloop
  endfacet
  facet normal 0 0 1
    outer loop
      vertex 10.3732 -3.37216 6
      vertex 9.68403 -2.08596 6
      vertex 9.74217 -3.03486 6
    endloop
  endfacet
  facet normal 0 0 1
    outer loop
      vertex 9.68403 -2.08596 6
      vertex 9.31716 -1.63893 6
      vertex 9.74217 -3.03486 6
    endloop
  endfacet
  facet normal 0 0 1
    outer loop
      vertex 9.31716 -1.63893 6
      vertex 9.04455 -1.12892 6
      vertex 9.74217 -3.03486 6
    endloop
  endfacet
  facet normal 0 0 1
    outer loop
      vertex 9.04455 1.12892 6
      vertex 8.19013 0.71208 6
      vertex 8.87668 0.575516 6
    endloop
  endfacet
  facet normal 0 0 1
    outer loop
      vertex 9.31716 1.63893 6
      vertex 8.19013 0.71208 6
      vertex 9.04455 1.12892 6
    endloop
  endfacet
  facet normal 0 0 1
    outer loop
      vertex 9.68403 2.08596 6
      vertex 8.19013 0.71208 6
      vertex 9.31716 1.63893 6
    endloop
  endfacet
  facet normal 0 0 1
    outer loop
      vertex 11.0579 3.57987 6
      vertex 8.19013 0.71208 6
      vertex 9.68403 2.08596 6
    endloop
  endfacet
  facet normal 0 0 1
    outer loop
      vertex 11.0579 3.57987 6
      vertex 9.68403 2.08596 6
      vertex 10.1311 2.45283 6
    endloop
  endfacet
  facet normal 0 0 1
    outer loop
      vertex 11.77 3.65 6
      vertex 10.1311 2.45283 6
      vertex 10.6411 2.72544 6
    endloop
  endfacet
  facet normal 0 0 1
    outer loop
      vertex 12.4821 3.57987 6
      vertex 10.6411 2.72544 6
      vertex 11.1945 2.89332 6
    endloop
  endfacet
  facet normal 0 0 1
    outer loop
      vertex 13.54 3.17268 6
      vertex 11.1945 2.89332 6
      vertex 11.77 2.95 6
    endloop
  endfacet
  facet normal 0 0 1
    outer loop
      vertex 13.54 3.17268 6
      vertex 11.77 2.95 6
      vertex 12.3455 2.89332 6
    endloop
  endfacet
  facet normal 0 0 1
    outer loop
      vertex 13.54 3.17268 6
      vertex 12.3455 2.89332 6
      vertex 12.8989 2.72544 6
    endloop
  endfacet
  facet normal 0 0 1
    outer loop
      vertex 13.54 3.17268 6
      vertex 12.8989 2.72544 6
      vertex 13.4089 2.45283 6
    endloop
  endfacet
  facet normal 0 0 1
    outer loop
      vertex 13.54 3.17268 6
      vertex 13.4089 2.45283 6
      vertex 13.54 2.34527 6
    endloop
  endfacet
  facet normal 0 0 1
    outer loop
      vertex 13.1668 3.37216 6
      vertex 11.1945 2.89332 6
      vertex 13.54 3.17268 6
    endloop
  endfacet
  facet normal 0 0 1
    outer loop
      vertex 12.4821 3.57987 6
      vertex 11.1945 2.89332 6
      vertex 13.1668 3.37216 6
    endloop
  endfacet
  facet normal 0 0 1
    outer loop
      vertex 11.77 3.65 6
      vertex 10.6411 2.72544 6
      vertex 12.4821 3.57987 6
    endloop
  endfacet
  facet normal 0 0 1
    outer loop
      vertex 11.0579 3.57987 6
      vertex 10.1311 2.45283 6
      vertex 11.77 3.65 6
    endloop
  endfacet
  facet normal 0 0 1
    outer loop
      vertex 10.3732 3.37216 6
      vertex 8.19013 0.71208 6
      vertex 11.0579 3.57987 6
    endloop
  endfacet
  facet normal 0 0 1
    outer loop
      vertex 9.74217 3.03486 6
      vertex 8.19013 0.71208 6
      vertex 10.3732 3.37216 6
    endloop
  endfacet
  facet normal 0 0 1
    outer loop
      vertex 9.18906 2.58094 6
      vertex 8.19013 0.71208 6
      vertex 9.74217 3.03486 6
    endloop
  endfacet
  facet normal 0 0 1
    outer loop
      vertex 8.73514 2.02783 6
      vertex 8.19013 0.71208 6
      vertex 9.18906 2.58094 6
    endloop
  endfacet
  facet normal 0 0 1
    outer loop
      vertex 8.39784 1.3968 6
      vertex 8.19013 0.71208 6
      vertex 8.73514 2.02783 6
    endloop
  endfacet
  facet normal 0 0 1
    outer loop
      vertex 13.4089 -2.45283 6
      vertex 12.8989 -2.72544 6
      vertex 13.54 -3.17268 6
    endloop
  endfacet
  facet normal 0 0 1
    outer loop
      vertex 8.87668 -0.575516 6
      vertex 8.82 0 6
      vertex 8.19013 0.71208 6
    endloop
  endfacet
  facet normal 0 0 1
    outer loop
      vertex 8.82 0 6
      vertex 8.87668 0.575516 6
      vertex 8.19013 0.71208 6
    endloop
  endfacet
  facet normal -0.634393 -0.773011 0
    outer loop
      vertex 9.18906 -2.58094 6
      vertex 9.18906 -2.58094 1.5
      vertex 9.74217 -3.03486 1.5
    endloop
  endfacet
  facet normal -0.634393 -0.773011 0
    outer loop
      vertex 9.74217 -3.03486 6
      vertex 9.18906 -2.58094 6
      vertex 9.74217 -3.03486 1.5
    endloop
  endfacet
  facet normal 0 0 1
    outer loop
      vertex 1.5 3.42705 1.5
      vertex 1.5 2.42705 1.5
      vertex 6.12 2.15 1.5
    endloop
  endfacet
  facet normal 0 0 1
    outer loop
      vertex 9.18906 2.58094 1.5
      vertex 1.5 3.42705 1.5
      vertex 8.8354 2.15 1.5
    endloop
  endfacet
  facet normal 0 0 1
    outer loop
      vertex 8.8354 2.15 1.5
      vertex 1.5 3.42705 1.5
      vertex 6.12 2.15 1.5
    endloop
  endfacet
  facet normal 0 0 1
    outer loop
      vertex 6.12 3.15 1.5
      vertex 1.5 3.42705 1.5
      vertex 9.18906 2.58094 1.5
    endloop
  endfacet
  facet normal 0 0 1
    outer loop
      vertex 9.74217 3.03486 1.5
      vertex 6.12 3.15 1.5
      vertex 9.18906 2.58094 1.5
    endloop
  endfacet
  facet normal 0 0 1
    outer loop
      vertex 9.95757 3.15 1.5
      vertex 6.12 3.15 1.5
      vertex 9.74217 3.03486 1.5
    endloop
  endfacet
  facet normal 0 0 1
    outer loop
      vertex 9.95757 3.15 0.75
      vertex 10.0275 3.1874 0.75
      vertex 9.88667 3.15 0.75
    endloop
  endfacet
  facet normal -0.634393 0.773011 0
    outer loop
      vertex 9.18906 2.58094 1.5
      vertex 9.18906 2.58094 6
      vertex 9.74217 3.03486 1.5
    endloop
  endfacet
  facet normal -0.634393 0.773011 0
    outer loop
      vertex 9.74217 3.03486 1.5
      vertex 9.18906 2.58094 6
      vertex 9.74217 3.03486 6
    endloop
  endfacet
  facet normal -0.098017 2.20975e-16 0.995185
    outer loop
      vertex 1.20737 3.4446 1.47118
      vertex 1.20737 2.4446 1.47118
      vertex 1.5 2.42705 1.5
    endloop
  endfacet
  facet normal -0.098017 2.20975e-16 0.995185
    outer loop
      vertex 1.5 3.42705 1.5
      vertex 1.20737 3.4446 1.47118
      vertex 1.5 2.42705 1.5
    endloop
  endfacet
  facet normal -0.290286 2.12483e-16 0.95694
    outer loop
      vertex 0.925975 3.46147 1.38582
      vertex 0.925975 2.46147 1.38582
      vertex 1.20737 2.4446 1.47118
    endloop
  endfacet
  facet normal -0.290286 2.12483e-16 0.95694
    outer loop
      vertex 1.20737 3.4446 1.47118
      vertex 0.925975 3.46147 1.38582
      vertex 1.20737 2.4446 1.47118
    endloop
  endfacet
  facet normal -0.471397 1.95826e-16 0.881921
    outer loop
      vertex 0.666645 3.47702 1.2472
      vertex 0.666645 2.47702 1.2472
      vertex 0.925975 2.46147 1.38582
    endloop
  endfacet
  facet normal -0.471397 1.95826e-16 0.881921
    outer loop
      vertex 0.925975 3.46147 1.38582
      vertex 0.666645 3.47702 1.2472
      vertex 0.925975 2.46147 1.38582
    endloop
  endfacet
  facet normal -0.634392 1.71643e-16 0.773011
    outer loop
      vertex 0.43934 3.49065 1.06066
      vertex 0.43934 2.49065 1.06066
      vertex 0.666645 2.47702 1.2472
    endloop
  endfacet
  facet normal -0.634392 1.71643e-16 0.773011
    outer loop
      vertex 0.666645 3.47702 1.2472
      vertex 0.43934 3.49065 1.06066
      vertex 0.666645 2.47702 1.2472
    endloop
  endfacet
  facet normal -0.773011 1.40863e-16 0.634392
    outer loop
      vertex 0.252796 2.50184 0.833355
      vertex 0.43934 2.49065 1.06066
      vertex 0.252796 3.50184 0.833355
    endloop
  endfacet
  facet normal -0.773011 1.40863e-16 0.634392
    outer loop
      vertex 0.252796 3.50184 0.833355
      vertex 0.43934 2.49065 1.06066
      vertex 0.43934 3.49065 1.06066
    endloop
  endfacet
  facet normal -0.881921 1.04671e-16 0.471397
    outer loop
      vertex 0.114181 2.51015 0.574025
      vertex 0.208242 2.50451 0.75
      vertex 0.114181 3.51015 0.574025
    endloop
  endfacet
  facet normal -0.881921 1.04671e-16 0.471397
    outer loop
      vertex 0.114181 3.51015 0.574025
      vertex 0.208242 2.50451 0.75
      vertex 0.252796 2.50184 0.833355
    endloop
  endfacet
  facet normal -0.881921 1.04671e-16 0.471397
    outer loop
      vertex 0.114181 3.51015 0.574025
      vertex 0.252796 2.50184 0.833355
      vertex 0.252796 3.50184 0.833355
    endloop
  endfacet
  facet normal -0.95694 6.44563e-17 0.290286
    outer loop
      vertex 0.028822 2.51527 0.292635
      vertex 0.114181 2.51015 0.574025
      vertex 0.028822 3.51527 0.292635
    endloop
  endfacet
  facet normal -0.95694 6.44563e-17 0.290286
    outer loop
      vertex 0.028822 3.51527 0.292635
      vertex 0.114181 2.51015 0.574025
      vertex 0.114181 3.51015 0.574025
    endloop
  endfacet
  facet normal -0.995185 2.17642e-17 0.098017
    outer loop
      vertex 0 2.51728 2.22045e-16
      vertex 0.0105409 2.51637 0.107024
      vertex 0 3.517 6.20748e-20
    endloop
  endfacet
  facet normal -0.995185 2.17642e-17 0.098017
    outer loop
      vertex 0 3.517 6.20748e-20
      vertex 0.0105409 2.51637 0.107024
      vertex 0.028822 2.51527 0.292635
    endloop
  endfacet
  facet normal -0.995185 2.17642e-17 0.098017
    outer loop
      vertex 0 3.517 6.20748e-20
      vertex 0.028822 2.51527 0.292635
      vertex 0.028822 3.51527 0.292635
    endloop
  endfacet
  facet normal 0.0861671 0.996281 0
    outer loop
      vertex 0 2.51728 2.22045e-16
      vertex 0 2.51728 0.75
      vertex 0.0105409 2.51637 0.107024
    endloop
  endfacet
  facet normal 0.0861671 0.996281 0
    outer loop
      vertex 0.0105409 2.51637 0.107024
      vertex 0 2.51728 0.75
      vertex 0.0105409 2.51637 0.75
    endloop
  endfacet
  facet normal 0.0598598 0.998207 0
    outer loop
      vertex 0.0105409 2.51637 0.107024
      vertex 0.0105409 2.51637 0.75
      vertex 0.028822 2.51527 0.292635
    endloop
  endfacet
  facet normal 0.0598598 0.998207 0
    outer loop
      vertex 0.114181 2.51015 0.574025
      vertex 0.0105409 2.51637 0.75
      vertex 0.208242 2.50451 0.75
    endloop
  endfacet
  facet normal 0.0598598 0.998207 0
    outer loop
      vertex 0.028822 2.51527 0.292635
      vertex 0.0105409 2.51637 0.75
      vertex 0.114181 2.51015 0.574025
    endloop
  endfacet
  facet normal -0.0598598 -0.998207 0
    outer loop
      vertex 6.12 2.15 0.75
      vertex 6.12 2.15 1.5
      vertex 1.5 2.42705 1.5
    endloop
  endfacet
  facet normal -0.0598598 -0.998207 0
    outer loop
      vertex 0.925975 2.46147 1.38582
      vertex 6.12 2.15 0.75
      vertex 1.20737 2.4446 1.47118
    endloop
  endfacet
  facet normal -0.0598598 -0.998207 0
    outer loop
      vertex 1.20737 2.4446 1.47118
      vertex 6.12 2.15 0.75
      vertex 1.5 2.42705 1.5
    endloop
  endfacet
  facet normal -0.0598598 -0.998207 0
    outer loop
      vertex 0.666645 2.47702 1.2472
      vertex 6.12 2.15 0.75
      vertex 0.925975 2.46147 1.38582
    endloop
  endfacet
  facet normal -0.0598598 -0.998207 0
    outer loop
      vertex 0.43934 2.49065 1.06066
      vertex 6.12 2.15 0.75
      vertex 0.666645 2.47702 1.2472
    endloop
  endfacet
  facet normal -0.0598598 -0.998207 0
    outer loop
      vertex 0.252796 2.50184 0.833355
      vertex 6.12 2.15 0.75
      vertex 0.43934 2.49065 1.06066
    endloop
  endfacet
  facet normal -0.0598598 -0.998207 0
    outer loop
      vertex 0.208242 2.50451 0.75
      vertex 6.12 2.15 0.75
      vertex 0.252796 2.50184 0.833355
    endloop
  endfacet
  facet normal 0 -1 0
    outer loop
      vertex 8.8354 2.15 0.75
      vertex 8.8354 2.15 1.5
      vertex 6.12 2.15 1.5
    endloop
  endfacet
  facet normal 0 -1 0
    outer loop
      vertex 6.12 2.15 0.75
      vertex 8.8354 2.15 0.75
      vertex 6.12 2.15 1.5
    endloop
  endfacet
  facet normal -0.773011 0.634393 0
    outer loop
      vertex 8.73514 2.02783 0.75
      vertex 8.73514 2.02783 6
      vertex 8.8354 2.15 0.75
    endloop
  endfacet
  facet normal -0.773011 0.634393 0
    outer loop
      vertex 8.8354 2.15 1.5
      vertex 8.73514 2.02783 6
      vertex 9.18906 2.58094 6
    endloop
  endfacet
  facet normal -0.773011 0.634393 0
    outer loop
      vertex 8.8354 2.15 0.75
      vertex 8.73514 2.02783 6
      vertex 8.8354 2.15 1.5
    endloop
  endfacet
  facet normal -0.773011 0.634393 0
    outer loop
      vertex 8.8354 2.15 1.5
      vertex 9.18906 2.58094 6
      vertex 9.18906 2.58094 1.5
    endloop
  endfacet
  facet normal -0.881921 0.471397 0
    outer loop
      vertex 8.39784 1.3968 0.75
      vertex 8.39784 1.3968 6
      vertex 8.73514 2.02783 0.75
    endloop
  endfacet
  facet normal -0.881921 0.471397 0
    outer loop
      vertex 8.73514 2.02783 0.75
      vertex 8.39784 1.3968 6
      vertex 8.73514 2.02783 6
    endloop
  endfacet
  facet normal -0.95694 0.290285 0
    outer loop
      vertex 8.19013 0.71208 0.75
      vertex 8.19013 0.71208 6
      vertex 8.39784 1.3968 0.75
    endloop
  endfacet
  facet normal -0.95694 0.290285 0
    outer loop
      vertex 8.39784 1.3968 0.75
      vertex 8.19013 0.71208 6
      vertex 8.39784 1.3968 6
    endloop
  endfacet
  facet normal -0.995185 0.0980175 0
    outer loop
      vertex 8.12 0 5.999
      vertex 8.12 0 6
      vertex 8.12 1.35267e-14 5.999
    endloop
  endfacet
  facet normal -0.995185 0.0980175 0
    outer loop
      vertex 8.16925 0.5 5.999
      vertex 8.19013 0.71208 0.75
      vertex 8.16925 0.5 0.75
    endloop
  endfacet
  facet normal -0.995185 0.0980175 0
    outer loop
      vertex 8.12 1.35267e-14 5.999
      vertex 8.12 0 6
      vertex 8.19013 0.71208 6
    endloop
  endfacet
  facet normal -0.995185 0.0980175 0
    outer loop
      vertex 8.19013 0.71208 6
      vertex 8.19013 0.71208 0.75
      vertex 8.16925 0.5 5.999
    endloop
  endfacet
  facet normal -0.995185 0.0980175 0
    outer loop
      vertex 8.12 1.35267e-14 5.999
      vertex 8.19013 0.71208 6
      vertex 8.16925 0.5 5.999
    endloop
  endfacet
  facet normal 0 1 2.22045e-16
    outer loop
      vertex 6.25362 0.5 0.75
      vertex 6.61482 0.5 0.849879
      vertex 8.16925 0.5 0.75
    endloop
  endfacet
  facet normal 0 1 2.22045e-16
    outer loop
      vertex 8.16925 0.5 0.75
      vertex 6.61482 0.5 0.849879
      vertex 6.96562 0.5 1.14863
    endloop
  endfacet
  facet normal 0 1 2.22045e-16
    outer loop
      vertex 6.96562 0.5 1.14863
      vertex 7.28892 0.5 1.63378
      vertex 8.16925 0.5 0.75
    endloop
  endfacet
  facet normal 0 1 2.22045e-16
    outer loop
      vertex 7.28892 0.5 1.63378
      vertex 7.57229 0.5 2.28669
      vertex 8.16925 0.5 0.75
    endloop
  endfacet
  facet normal 0 1 2.22045e-16
    outer loop
      vertex 7.57229 0.5 2.28669
      vertex 7.80485 0.5 3.08226
      vertex 8.16925 0.5 0.75
    endloop
  endfacet
  facet normal 0 1 2.22045e-16
    outer loop
      vertex 7.80485 0.5 3.08226
      vertex 7.97766 0.5 3.98991
      vertex 8.16925 0.5 0.75
    endloop
  endfacet
  facet normal 0 1 2.22045e-16
    outer loop
      vertex 7.97766 0.5 3.98991
      vertex 8.08407 0.5 4.97478
      vertex 8.16925 0.5 0.75
    endloop
  endfacet
  facet normal 0 1 2.22045e-16
    outer loop
      vertex 8.08407 0.5 4.97478
      vertex 8.12 0.5 5.999
      vertex 8.16925 0.5 0.75
    endloop
  endfacet
  facet normal 0 1 2.22045e-16
    outer loop
      vertex 8.16925 0.5 0.75
      vertex 8.12 0.5 5.999
      vertex 8.16925 0.5 5.999
    endloop
  endfacet
  facet normal -0.266516 -2.14013e-16 0.96383
    outer loop
      vertex 6.25362 -0.5 0.75
      vertex 6.61482 -0.5 0.849879
      vertex 6.61482 0.5 0.849879
    endloop
  endfacet
  facet normal -0.266516 -2.14013e-16 0.96383
    outer loop
      vertex 6.25362 0.5 0.75
      vertex 6.25362 -0.5 0.75
      vertex 6.61482 0.5 0.849879
    endloop
  endfacet
  facet normal 0 -1 -2.22045e-16
    outer loop
      vertex 6.61482 -0.5 0.849879
      vertex 6.25362 -0.5 0.75
      vertex 8.16925 -0.5 0.75
    endloop
  endfacet
  facet normal 0 -1 -2.22045e-16
    outer loop
      vertex 6.96562 -0.5 1.14863
      vertex 6.61482 -0.5 0.849879
      vertex 8.16925 -0.5 0.75
    endloop
  endfacet
  facet normal 0 -1 -2.22045e-16
    outer loop
      vertex 8.16925 -0.5 5.999
      vertex 8.08407 -0.5 4.97478
      vertex 8.16925 -0.5 0.75
    endloop
  endfacet
  facet normal 0 -1 -2.22045e-16
    outer loop
      vertex 8.08407 -0.5 4.97478
      vertex 7.97766 -0.5 3.98991
      vertex 8.16925 -0.5 0.75
    endloop
  endfacet
  facet normal 0 -1 -2.22045e-16
    outer loop
      vertex 7.97766 -0.5 3.98991
      vertex 7.80485 -0.5 3.08226
      vertex 8.16925 -0.5 0.75
    endloop
  endfacet
  facet normal 0 -1 -2.22045e-16
    outer loop
      vertex 7.80485 -0.5 3.08226
      vertex 7.57229 -0.5 2.28669
      vertex 8.16925 -0.5 0.75
    endloop
  endfacet
  facet normal 0 -1 -2.22045e-16
    outer loop
      vertex 7.57229 -0.5 2.28669
      vertex 7.28892 -0.5 1.63378
      vertex 8.16925 -0.5 0.75
    endloop
  endfacet
  facet normal 0 -1 -2.22045e-16
    outer loop
      vertex 7.28892 -0.5 1.63378
      vertex 6.96562 -0.5 1.14863
      vertex 8.16925 -0.5 0.75
    endloop
  endfacet
  facet normal 0 -1 -2.22045e-16
    outer loop
      vertex 8.12 -0.5 5.999
      vertex 8.08407 -0.5 4.97478
      vertex 8.16925 -0.5 5.999
    endloop
  endfacet
  facet normal -0.995185 -0.0980175 0
    outer loop
      vertex 8.12 0 5.999
      vertex 8.12 -1.35267e-14 5.999
      vertex 8.12 0 6
    endloop
  endfacet
  facet normal -0.995185 -0.0980175 0
    outer loop
      vertex 8.12 0 6
      vertex 8.12 -1.35267e-14 5.999
      vertex 8.16925 -0.5 5.999
    endloop
  endfacet
  facet normal -0.995185 -0.0980175 0
    outer loop
      vertex 8.16925 -0.5 5.999
      vertex 8.16925 -0.5 0.75
      vertex 8.19013 -0.71208 0.75
    endloop
  endfacet
  facet normal -0.995185 -0.0980175 0
    outer loop
      vertex 8.16925 -0.5 5.999
      vertex 8.19013 -0.71208 0.75
      vertex 8.19013 -0.71208 6
    endloop
  endfacet
  facet normal -0.995185 -0.0980175 0
    outer loop
      vertex 8.16925 -0.5 5.999
      vertex 8.19013 -0.71208 6
      vertex 8.12 0 6
    endloop
  endfacet
  facet normal -0.95694 -0.290285 0
    outer loop
      vertex 8.19013 -0.71208 0.75
      vertex 8.39784 -1.3968 0.75
      vertex 8.19013 -0.71208 6
    endloop
  endfacet
  facet normal -0.95694 -0.290285 0
    outer loop
      vertex 8.19013 -0.71208 6
      vertex 8.39784 -1.3968 0.75
      vertex 8.39784 -1.3968 6
    endloop
  endfacet
  facet normal -0.881921 -0.471397 0
    outer loop
      vertex 8.39784 -1.3968 0.75
      vertex 8.73514 -2.02783 0.75
      vertex 8.39784 -1.3968 6
    endloop
  endfacet
  facet normal -0.881921 -0.471397 0
    outer loop
      vertex 8.39784 -1.3968 6
      vertex 8.73514 -2.02783 0.75
      vertex 8.73514 -2.02783 6
    endloop
  endfacet
  facet normal -0.773011 -0.634393 0
    outer loop
      vertex 8.73514 -2.02783 0.75
      vertex 8.8354 -2.15 0.75
      vertex 8.73514 -2.02783 6
    endloop
  endfacet
  facet normal -0.773011 -0.634393 0
    outer loop
      vertex 8.73514 -2.02783 6
      vertex 8.8354 -2.15 0.75
      vertex 8.8354 -2.15 1.5
    endloop
  endfacet
  facet normal -0.773011 -0.634393 0
    outer loop
      vertex 8.73514 -2.02783 6
      vertex 8.8354 -2.15 1.5
      vertex 9.18906 -2.58094 1.5
    endloop
  endfacet
  facet normal -0.773011 -0.634393 0
    outer loop
      vertex 8.73514 -2.02783 6
      vertex 9.18906 -2.58094 1.5
      vertex 9.18906 -2.58094 6
    endloop
  endfacet
  facet normal 0 1 0
    outer loop
      vertex 8.8354 -2.15 1.5
      vertex 8.8354 -2.15 0.75
      vertex 6.12 -2.15 1.5
    endloop
  endfacet
  facet normal 0 1 0
    outer loop
      vertex 6.12 -2.15 1.5
      vertex 8.8354 -2.15 0.75
      vertex 6.12 -2.15 0.75
    endloop
  endfacet
  facet normal -0.0598598 0.998207 0
    outer loop
      vertex 0.208242 -2.50451 0.75
      vertex 0.252796 -2.50184 0.833355
      vertex 6.12 -2.15 0.75
    endloop
  endfacet
  facet normal -0.0598598 0.998207 0
    outer loop
      vertex 6.12 -2.15 0.75
      vertex 0.252796 -2.50184 0.833355
      vertex 0.43934 -2.49065 1.06066
    endloop
  endfacet
  facet normal -0.0598598 0.998207 0
    outer loop
      vertex 6.12 -2.15 0.75
      vertex 0.43934 -2.49065 1.06066
      vertex 0.666645 -2.47702 1.2472
    endloop
  endfacet
  facet normal -0.0598598 0.998207 0
    outer loop
      vertex 6.12 -2.15 0.75
      vertex 0.666645 -2.47702 1.2472
      vertex 0.925975 -2.46147 1.38582
    endloop
  endfacet
  facet normal -0.0598598 0.998207 0
    outer loop
      vertex 6.12 -2.15 0.75
      vertex 0.925975 -2.46147 1.38582
      vertex 1.20737 -2.4446 1.47118
    endloop
  endfacet
  facet normal -0.0598598 0.998207 0
    outer loop
      vertex 6.12 -2.15 0.75
      vertex 1.20737 -2.4446 1.47118
      vertex 1.5 -2.42705 1.5
    endloop
  endfacet
  facet normal -0.0598598 0.998207 0
    outer loop
      vertex 6.12 -2.15 0.75
      vertex 1.5 -2.42705 1.5
      vertex 6.12 -2.15 1.5
    endloop
  endfacet
  facet normal 0.0598598 -0.998207 0
    outer loop
      vertex 0.028822 -2.51527 0.292635
      vertex 0.114181 -2.51015 0.574025
      vertex 0.0105409 -2.51637 0.75
    endloop
  endfacet
  facet normal 0.0598598 -0.998207 0
    outer loop
      vertex 0.0105409 -2.51637 0.75
      vertex 0.114181 -2.51015 0.574025
      vertex 0.208242 -2.50451 0.75
    endloop
  endfacet
  facet normal 0.0598598 -0.998207 0
    outer loop
      vertex 0.028822 -2.51527 0.292635
      vertex 0.0105409 -2.51637 0.75
      vertex 0.0105409 -2.51637 0.107024
    endloop
  endfacet
  facet normal -0.980786 0.195089 0
    outer loop
      vertex -0.45 0 0.75
      vertex -0.45 0 2.1
      vertex -0.415746 0.172208 0.75
    endloop
  endfacet
  facet normal -0.980786 0.195089 0
    outer loop
      vertex -0.415746 0.172208 0.75
      vertex -0.45 0 2.1
      vertex -0.415746 0.172208 2.1
    endloop
  endfacet
  facet normal -0.980786 -0.195089 0
    outer loop
      vertex -0.45 0 0.75
      vertex -0.415746 -0.172208 0.75
      vertex -0.45 0 2.1
    endloop
  endfacet
  facet normal -0.980786 -0.195089 0
    outer loop
      vertex -0.45 0 2.1
      vertex -0.415746 -0.172208 0.75
      vertex -0.415746 -0.172208 2.1
    endloop
  endfacet
  facet normal -0.831468 -0.555573 0
    outer loop
      vertex -0.415746 -0.172208 0.75
      vertex -0.318198 -0.318198 0.75
      vertex -0.415746 -0.172208 2.1
    endloop
  endfacet
  facet normal -0.831468 -0.555573 0
    outer loop
      vertex -0.415746 -0.172208 2.1
      vertex -0.318198 -0.318198 0.75
      vertex -0.318198 -0.318198 2.1
    endloop
  endfacet
  facet normal -0.555573 -0.831468 0
    outer loop
      vertex -0.318198 -0.318198 2.1
      vertex -0.318198 -0.318198 0.75
      vertex -0.172208 -0.415746 0.75
    endloop
  endfacet
  facet normal -0.555573 -0.831468 0
    outer loop
      vertex -0.172208 -0.415746 2.1
      vertex -0.318198 -0.318198 2.1
      vertex -0.172208 -0.415746 0.75
    endloop
  endfacet
  facet normal -0.195089 -0.980786 0
    outer loop
      vertex -0.172208 -0.415746 2.1
      vertex -0.172208 -0.415746 0.75
      vertex 0 -0.45 0.75
    endloop
  endfacet
  facet normal -0.195089 -0.980786 0
    outer loop
      vertex 0 -0.45 2.1
      vertex -0.172208 -0.415746 2.1
      vertex 0 -0.45 0.75
    endloop
  endfacet
  facet normal 0.195089 -0.980786 0
    outer loop
      vertex 0 -0.45 2.1
      vertex 0 -0.45 0.75
      vertex 0.172208 -0.415746 0.75
    endloop
  endfacet
  facet normal 0.195089 -0.980786 0
    outer loop
      vertex 0.172208 -0.415746 2.1
      vertex 0 -0.45 2.1
      vertex 0.172208 -0.415746 0.75
    endloop
  endfacet
  facet normal 0.555573 -0.831468 0
    outer loop
      vertex 0.172208 -0.415746 2.1
      vertex 0.172208 -0.415746 0.75
      vertex 0.318198 -0.318198 0.75
    endloop
  endfacet
  facet normal 0.555573 -0.831468 0
    outer loop
      vertex 0.318198 -0.318198 2.1
      vertex 0.172208 -0.415746 2.1
      vertex 0.318198 -0.318198 0.75
    endloop
  endfacet
  facet normal 0.831468 -0.555573 0
    outer loop
      vertex 0.318198 -0.318198 2.1
      vertex 0.318198 -0.318198 0.75
      vertex 0.415746 -0.172208 0.75
    endloop
  endfacet
  facet normal 0.831468 -0.555573 0
    outer loop
      vertex 0.415746 -0.172208 2.1
      vertex 0.318198 -0.318198 2.1
      vertex 0.415746 -0.172208 0.75
    endloop
  endfacet
  facet normal 0.980786 -0.195089 0
    outer loop
      vertex 0.415746 -0.172208 2.1
      vertex 0.415746 -0.172208 0.75
      vertex 0.45 0 0.75
    endloop
  endfacet
  facet normal 0.980786 -0.195089 0
    outer loop
      vertex 0.45 0 2.1
      vertex 0.415746 -0.172208 2.1
      vertex 0.45 0 0.75
    endloop
  endfacet
  facet normal 0.980786 0.195089 0
    outer loop
      vertex 0.45 0 0.75
      vertex 0.415746 0.172208 0.75
      vertex 0.415746 0.172208 2.1
    endloop
  endfacet
  facet normal 0.980786 0.195089 0
    outer loop
      vertex 0.45 0 2.1
      vertex 0.45 0 0.75
      vertex 0.415746 0.172208 2.1
    endloop
  endfacet
  facet normal 0.831468 0.555573 0
    outer loop
      vertex 0.415746 0.172208 0.75
      vertex 0.318198 0.318198 0.75
      vertex 0.318198 0.318198 2.1
    endloop
  endfacet
  facet normal 0.831468 0.555573 0
    outer loop
      vertex 0.415746 0.172208 2.1
      vertex 0.415746 0.172208 0.75
      vertex 0.318198 0.318198 2.1
    endloop
  endfacet
  facet normal 0.555573 0.831468 0
    outer loop
      vertex 0.172208 0.415746 0.75
      vertex 0.172208 0.415746 2.1
      vertex 0.318198 0.318198 0.75
    endloop
  endfacet
  facet normal 0.555573 0.831468 0
    outer loop
      vertex 0.318198 0.318198 0.75
      vertex 0.172208 0.415746 2.1
      vertex 0.318198 0.318198 2.1
    endloop
  endfacet
  facet normal 0.195089 0.980786 0
    outer loop
      vertex 0 0.45 0.75
      vertex 0 0.45 2.1
      vertex 0.172208 0.415746 0.75
    endloop
  endfacet
  facet normal 0.195089 0.980786 0
    outer loop
      vertex 0.172208 0.415746 0.75
      vertex 0 0.45 2.1
      vertex 0.172208 0.415746 2.1
    endloop
  endfacet
  facet normal -0.195089 0.980786 0
    outer loop
      vertex -0.172208 0.415746 0.75
      vertex -0.172208 0.415746 2.1
      vertex 0 0.45 0.75
    endloop
  endfacet
  facet normal -0.195089 0.980786 0
    outer loop
      vertex 0 0.45 0.75
      vertex -0.172208 0.415746 2.1
      vertex 0 0.45 2.1
    endloop
  endfacet
  facet normal -0.555573 0.831468 0
    outer loop
      vertex -0.318198 0.318198 0.75
      vertex -0.318198 0.318198 2.1
      vertex -0.172208 0.415746 0.75
    endloop
  endfacet
  facet normal -0.555573 0.831468 0
    outer loop
      vertex -0.172208 0.415746 0.75
      vertex -0.318198 0.318198 2.1
      vertex -0.172208 0.415746 2.1
    endloop
  endfacet
  facet normal -0.831468 0.555573 0
    outer loop
      vertex -0.415746 0.172208 0.75
      vertex -0.415746 0.172208 2.1
      vertex -0.318198 0.318198 0.75
    endloop
  endfacet
  facet normal -0.831468 0.555573 0
    outer loop
      vertex -0.318198 0.318198 0.75
      vertex -0.415746 0.172208 2.1
      vertex -0.318198 0.318198 2.1
    endloop
  endfacet
  facet normal -0.999385 -7.78504e-18 0.0350607
    outer loop
      vertex 8.12 -1.35267e-14 5.999
      vertex 8.12 0 5.999
      vertex 8.12 -0.5 5.999
    endloop
  endfacet
  facet normal -0.999385 -7.78504e-18 0.0350607
    outer loop
      vertex 8.12 0.5 5.999
      vertex 8.12 0 5.999
      vertex 8.12 1.35267e-14 5.999
    endloop
  endfacet
  facet normal -0.999385 -7.78504e-18 0.0350607
    outer loop
      vertex 8.08407 0.5 4.97478
      vertex 8.12 0 5.999
      vertex 8.12 0.5 5.999
    endloop
  endfacet
  facet normal -0.999385 -7.78504e-18 0.0350607
    outer loop
      vertex 8.12 -0.5 5.999
      vertex 8.12 0 5.999
      vertex 8.08407 0.5 4.97478
    endloop
  endfacet
  facet normal -0.999385 -7.78504e-18 0.0350607
    outer loop
      vertex 8.12 -0.5 5.999
      vertex 8.08407 0.5 4.97478
      vertex 8.08407 -0.5 4.97478
    endloop
  endfacet
  facet normal 0 -2.22045e-16 1
    outer loop
      vertex 8.12 0.5 5.999
      vertex 8.12 1.35267e-14 5.999
      vertex 8.16925 0.5 5.999
    endloop
  endfacet
  facet normal -0.994213 -2.38526e-17 0.107423
    outer loop
      vertex 8.08407 0.5 4.97478
      vertex 7.97766 0.5 3.98991
      vertex 8.08407 -0.5 4.97478
    endloop
  endfacet
  facet normal -0.994213 -2.38526e-17 0.107423
    outer loop
      vertex 8.08407 -0.5 4.97478
      vertex 7.97766 0.5 3.98991
      vertex 7.97766 -0.5 3.98991
    endloop
  endfacet
  facet normal -0.982355 -4.15286e-17 0.187028
    outer loop
      vertex 7.97766 0.5 3.98991
      vertex 7.80485 0.5 3.08226
      vertex 7.97766 -0.5 3.98991
    endloop
  endfacet
  facet normal -0.982355 -4.15286e-17 0.187028
    outer loop
      vertex 7.97766 -0.5 3.98991
      vertex 7.80485 0.5 3.08226
      vertex 7.80485 -0.5 3.08226
    endloop
  endfacet
  facet normal -0.959832 -6.23003e-17 0.280576
    outer loop
      vertex 7.80485 0.5 3.08226
      vertex 7.57229 0.5 2.28669
      vertex 7.80485 -0.5 3.08226
    endloop
  endfacet
  facet normal -0.959832 -6.23003e-17 0.280576
    outer loop
      vertex 7.80485 -0.5 3.08226
      vertex 7.57229 0.5 2.28669
      vertex 7.57229 -0.5 2.28669
    endloop
  endfacet
  facet normal -0.917326 -8.84043e-17 0.398138
    outer loop
      vertex 7.57229 0.5 2.28669
      vertex 7.28892 0.5 1.63378
      vertex 7.57229 -0.5 2.28669
    endloop
  endfacet
  facet normal -0.917326 -8.84043e-17 0.398138
    outer loop
      vertex 7.57229 -0.5 2.28669
      vertex 7.28892 0.5 1.63378
      vertex 7.28892 -0.5 1.63378
    endloop
  endfacet
  facet normal -0.832158 -1.23132e-16 0.554538
    outer loop
      vertex 7.28892 0.5 1.63378
      vertex 6.96562 0.5 1.14863
      vertex 7.28892 -0.5 1.63378
    endloop
  endfacet
  facet normal -0.832158 -1.23132e-16 0.554538
    outer loop
      vertex 7.28892 -0.5 1.63378
      vertex 6.96562 0.5 1.14863
      vertex 6.96562 -0.5 1.14863
    endloop
  endfacet
  facet normal -0.648369 -1.69048e-16 0.761326
    outer loop
      vertex 6.96562 -0.5 1.14863
      vertex 6.96562 0.5 1.14863
      vertex 6.61482 0.5 0.849879
    endloop
  endfacet
  facet normal -0.648369 -1.69048e-16 0.761326
    outer loop
      vertex 6.61482 -0.5 0.849879
      vertex 6.96562 -0.5 1.14863
      vertex 6.61482 0.5 0.849879
    endloop
  endfacet
  facet normal 0 -2.22045e-16 1
    outer loop
      vertex 8.12 -1.35267e-14 5.999
      vertex 8.12 -0.5 5.999
      vertex 8.16925 -0.5 5.999
    endloop
  endfacet
  facet normal 0 0 1
    outer loop
      vertex -0.415746 0.172208 2.1
      vertex -0.45 0 2.1
      vertex -0.415746 -0.172208 2.1
    endloop
  endfacet
  facet normal 0 0 1
    outer loop
      vertex -0.172208 -0.415746 2.1
      vertex -0.415746 0.172208 2.1
      vertex -0.318198 -0.318198 2.1
    endloop
  endfacet
  facet normal 0 0 1
    outer loop
      vertex -0.318198 -0.318198 2.1
      vertex -0.415746 0.172208 2.1
      vertex -0.415746 -0.172208 2.1
    endloop
  endfacet
  facet normal 0 0 1
    outer loop
      vertex 0 -0.45 2.1
      vertex -0.415746 0.172208 2.1
      vertex -0.172208 -0.415746 2.1
    endloop
  endfacet
  facet normal 0 0 1
    outer loop
      vertex 0.172208 -0.415746 2.1
      vertex -0.415746 0.172208 2.1
      vertex 0 -0.45 2.1
    endloop
  endfacet
  facet normal 0 0 1
    outer loop
      vertex 0.318198 -0.318198 2.1
      vertex -0.415746 0.172208 2.1
      vertex 0.172208 -0.415746 2.1
    endloop
  endfacet
  facet normal 0 0 1
    outer loop
      vertex 0.415746 -0.172208 2.1
      vertex -0.415746 0.172208 2.1
      vertex 0.318198 -0.318198 2.1
    endloop
  endfacet
  facet normal 0 0 1
    outer loop
      vertex 0.45 0 2.1
      vertex -0.415746 0.172208 2.1
      vertex 0.415746 -0.172208 2.1
    endloop
  endfacet
  facet normal 0 0 1
    outer loop
      vertex 0.415746 0.172208 2.1
      vertex -0.415746 0.172208 2.1
      vertex 0.45 0 2.1
    endloop
  endfacet
  facet normal 0 0 1
    outer loop
      vertex 0.318198 0.318198 2.1
      vertex -0.415746 0.172208 2.1
      vertex 0.415746 0.172208 2.1
    endloop
  endfacet
  facet normal 0 0 1
    outer loop
      vertex 0.172208 0.415746 2.1
      vertex -0.415746 0.172208 2.1
      vertex 0.318198 0.318198 2.1
    endloop
  endfacet
  facet normal 0 0 1
    outer loop
      vertex 0 0.45 2.1
      vertex -0.415746 0.172208 2.1
      vertex 0.172208 0.415746 2.1
    endloop
  endfacet
  facet normal 0 0 1
    outer loop
      vertex -0.172208 0.415746 2.1
      vertex -0.415746 0.172208 2.1
      vertex 0 0.45 2.1
    endloop
  endfacet
  facet normal 0 0 1
    outer loop
      vertex -0.318198 0.318198 2.1
      vertex -0.415746 0.172208 2.1
      vertex -0.172208 0.415746 2.1
    endloop
  endfacet
endsolid OpenSCAD_Model
